# This file uses centimeters as units for non-parametric coordinates.

mtllib Bomber.mtl
g default
v 0.911594 0.124999 0.156184
v 0.375000 0.375000 0.156186
v 0.464722 0.375000 0.565003
v 0.911594 0.124999 0.839452
v 0.187500 -0.187500 -0.718815
v 0.375000 -0.375000 -0.093815
v 0.125000 -0.375000 -0.093815
v 0.062500 -0.187500 -0.718815
v 0.375000 -0.375000 0.156184
v 0.125000 -0.375000 0.156184
v 0.464722 -0.375000 0.565003
v 0.214722 -0.375000 0.437802
v 0.125000 0.375000 0.156184
v 0.214722 0.375000 0.437802
v 0.187500 0.187500 -0.718815
v 0.062500 0.187500 -0.718815
v 0.125000 0.375000 -0.093815
v 0.375000 0.375000 -0.093815
v 0.911594 -0.125000 0.156184
v 0.911594 -0.125000 0.839452
v 0.187500 -0.062500 -0.718815
v 0.554446 -0.124999 -0.394653
v 0.187500 0.062501 -0.718815
v 0.554446 0.125000 -0.394653
v 0.214722 -0.125000 0.437802
v 0.214722 0.124999 0.437802
v 0.062500 0.062501 -0.969459
v 0.062500 -0.062500 -0.969459
v 0.000000 0.375000 -0.093815
v 0.000000 0.375000 0.156184
v 0.000000 0.062501 -0.969459
v 0.000000 0.187500 -0.718815
v 0.000000 -0.125000 0.712251
v 0.000000 -0.375000 0.712251
v 0.000000 -0.062500 -0.969459
v 0.000000 0.124999 0.712251
v 0.000000 -0.375000 0.156184
v 0.000000 -0.375000 -0.093815
v 0.000000 -0.187500 -0.718815
v 0.000000 0.375000 0.712251
v -0.911594 0.124999 0.156184
v -0.911594 0.124999 0.839452
v -0.464722 0.375000 0.565003
v -0.375000 0.375000 0.156186
v -0.187500 -0.187500 -0.718815
v -0.062500 -0.187500 -0.718815
v -0.125000 -0.375000 -0.093815
v -0.375000 -0.375000 -0.093815
v -0.125000 -0.375000 0.156184
v -0.375000 -0.375000 0.156184
v -0.214722 -0.375000 0.437802
v -0.464722 -0.375000 0.565003
v -0.214722 0.375000 0.437802
v -0.125000 0.375000 0.156184
v -0.187500 0.187500 -0.718815
v -0.375000 0.375000 -0.093815
v -0.125000 0.375000 -0.093815
v -0.062500 0.187500 -0.718815
v -0.911594 -0.125000 0.839452
v -0.911594 -0.125000 0.156184
v -0.554446 -0.124999 -0.394653
v -0.187500 -0.062500 -0.718815
v -0.554446 0.125000 -0.394653
v -0.187500 0.062501 -0.718815
v -0.214722 -0.125000 0.437802
v -0.214722 0.124999 0.437802
v -0.062500 0.062501 -0.969459
v -0.062500 -0.062500 -0.969459
vt 0.015625 0.653804
vt 0.317472 0.676769
vt 0.267106 0.871116
vt 0.015625 0.982696
vt 0.781111 0.040061
vt 0.795699 0.093944
vt 0.775637 0.094244
vt 0.770743 0.039904
vt 0.797641 0.114554
vt 0.776276 0.115000
vt 0.804734 0.148721
vt 0.783791 0.138305
vt 0.439269 0.680960
vt 0.393268 0.815390
vt 0.409391 0.246940
vt 0.469930 0.245891
vt 0.442727 0.560428
vt 0.326895 0.558918
vt 0.846860 0.114152
vt 0.847541 0.170894
vt 0.925853 0.270229
vt 0.967510 0.270229
vt 0.967510 0.384082
vt 0.925853 0.384082
vt 0.787596 0.033757
vt 0.814820 0.064426
vt 0.936270 0.079252
vt 0.957099 0.079252
vt 0.967512 0.160838
vt 0.925854 0.160838
vt 0.371482 0.210590
vt 0.213859 0.390229
vt 0.317137 0.035001
vt 0.399148 0.074194
vt 0.273285 0.074191
vt 0.273279 0.035084
vt 0.399149 0.113308
vt 0.273285 0.113320
vt 0.317137 0.152507
vt 0.273276 0.152426
vt 0.467261 0.109375
vt 0.936270 0.032582
vt 0.957099 0.032582
vt 0.819583 0.066901
vt 0.771176 0.016686
vt 0.500002 0.560534
vt 0.500002 0.681164
vt 0.500002 0.109375
vt 0.500003 0.245957
vt 0.218750 0.074194
vt 0.218753 0.035075
vt 0.936271 0.022167
vt 0.957099 0.022168
vt 0.218749 0.113309
vt 0.765625 0.115046
vt 0.765625 0.094251
vt 0.765626 0.039915
vt 0.765626 0.016605
vt 0.218748 0.152427
vt 0.765625 0.161222
vt 0.500002 0.948559
vt 0.984375 0.653805
vt 0.984375 0.982697
vt 0.732896 0.871116
vt 0.682530 0.676771
vt 0.750140 0.040061
vt 0.760508 0.039904
vt 0.755613 0.094244
vt 0.735551 0.093944
vt 0.754973 0.115000
vt 0.733608 0.114554
vt 0.747458 0.138305
vt 0.726516 0.148721
vt 0.606734 0.815390
vt 0.560734 0.680960
vt 0.590612 0.246941
vt 0.673108 0.558920
vt 0.557277 0.560428
vt 0.530075 0.245891
vt 0.683709 0.170895
vt 0.684389 0.114153
vt 0.917897 0.270230
vt 0.917898 0.384082
vt 0.876241 0.384083
vt 0.876240 0.270230
vt 0.716431 0.064425
vt 0.743655 0.033757
vt 0.907481 0.079253
vt 0.917896 0.160839
vt 0.876238 0.160839
vt 0.886652 0.079253
vt 0.628520 0.210590
vt 0.786142 0.390229
vt 0.120365 0.034993
vt 0.164225 0.035075
vt 0.164215 0.074182
vt 0.038352 0.074187
vt 0.164214 0.113311
vt 0.038351 0.113302
vt 0.164220 0.152418
vt 0.120361 0.152499
vt 0.532741 0.109375
vt 0.886652 0.032582
vt 0.907480 0.032582
vt 0.711664 0.066902
vt 0.760076 0.016686
vt 0.886651 0.022168
vt 0.907480 0.022167
vn 0.461252 0.886461 -0.037873
vn 0.461252 0.886461 -0.037873
vn 0.461252 0.886461 -0.037873
vn 0.461252 0.886461 -0.037873
vn 0.000000 -0.957859 -0.287238
vn 0.000000 -0.957859 -0.287238
vn 0.000000 -0.957859 -0.287238
vn 0.000000 -0.957859 -0.287238
vn 0.000000 -1.000000 0.000000
vn 0.000000 -1.000000 0.000000
vn 0.000000 -1.000000 0.000000
vn 0.000000 -1.000000 0.000000
vn 0.000000 -1.000000 0.000000
vn 0.000000 -1.000000 0.000000
vn 0.000000 -1.000000 0.000000
vn 0.000000 -1.000000 0.000000
vn 0.000000 1.000000 0.000000
vn 0.000000 1.000000 0.000000
vn 0.000000 1.000000 0.000000
vn 0.000000 1.000000 0.000000
vn 0.000000 0.957859 -0.287238
vn 0.000000 0.957859 -0.287238
vn 0.000000 0.957859 -0.287238
vn 0.000000 0.957859 -0.287238
vn 0.000000 1.000000 0.000000
vn 0.000000 1.000000 0.000000
vn 0.000000 1.000000 0.000000
vn 0.000000 1.000000 0.000000
vn 0.461252 -0.886461 -0.037873
vn 0.461252 -0.886461 -0.037873
vn 0.461252 -0.886461 -0.037873
vn 0.461252 -0.886461 -0.037873
vn 1.000000 0.000000 0.000000
vn 1.000000 0.000000 0.000000
vn 1.000000 0.000000 0.000000
vn 1.000000 0.000000 0.000000
vn 0.554412 -0.665813 -0.499321
vn 0.554412 -0.665813 -0.499321
vn 0.554412 -0.665813 -0.499321
vn 0.554412 -0.665813 -0.499321
vn 0.662145 0.000000 -0.749376
vn 0.662145 0.000000 -0.749376
vn 0.662145 0.000000 -0.749376
vn 0.662145 0.000000 -0.749376
vn 0.839101 0.000000 -0.543976
vn 0.839101 0.000000 -0.543976
vn 0.839101 0.000000 -0.543976
vn 0.839101 0.000000 -0.543976
vn 0.554412 0.665813 -0.499321
vn 0.554412 0.665813 -0.499321
vn 0.554412 0.665813 -0.499321
vn 0.554412 0.665813 -0.499321
vn 0.812441 0.583044 0.000000
vn 0.812441 0.583044 0.000000
vn 0.812441 0.583044 0.000000
vn -0.487224 -0.043372 0.872199
vn -0.487224 -0.043372 0.872199
vn -0.487224 -0.043372 0.872199
vn -0.487224 -0.043372 0.872199
vn -0.499413 0.000000 0.866364
vn -0.499413 0.000000 0.866364
vn -0.499413 0.000000 0.866364
vn -0.499413 0.000000 0.866364
vn -0.487224 0.043372 0.872199
vn -0.487224 0.043372 0.872199
vn -0.487224 0.043372 0.872199
vn -0.487224 0.043372 0.872199
vn 0.894878 0.000000 -0.446310
vn 0.894878 0.000000 -0.446310
vn 0.894878 0.000000 -0.446310
vn 0.894878 0.000000 -0.446310
vn 0.894878 0.000000 -0.446310
vn 0.894878 0.000000 -0.446310
vn 0.894878 0.000000 -0.446310
vn 0.000000 0.894878 -0.446310
vn 0.000000 0.894878 -0.446310
vn 0.000000 0.894878 -0.446310
vn 0.407252 0.874296 -0.264105
vn 0.407252 0.874296 -0.264105
vn 0.407252 0.874296 -0.264105
vn 0.812441 -0.583044 0.000000
vn 0.812441 -0.583044 0.000000
vn 0.812441 -0.583044 0.000000
vn 0.407252 -0.874296 -0.264105
vn 0.407252 -0.874296 -0.264105
vn 0.407252 -0.874296 -0.264105
vn 0.000000 -0.894878 -0.446310
vn 0.000000 -0.894878 -0.446310
vn 0.000000 -0.894878 -0.446310
vn 0.894878 0.000000 -0.446310
vn 0.894878 0.000000 -0.446310
vn 0.894878 0.000000 -0.446310
vn 0.000000 1.000000 0.000000
vn 0.000000 1.000000 0.000000
vn 0.000000 1.000000 0.000000
vn 0.000000 1.000000 0.000000
vn 0.000000 0.894878 -0.446310
vn 0.000000 0.894878 -0.446310
vn 0.000000 0.894878 -0.446310
vn 0.000000 0.894878 -0.446310
vn 0.787571 0.000000 0.616224
vn 0.787571 0.000000 0.616224
vn 0.787571 0.000000 0.616224
vn 0.787571 0.000000 0.616224
vn 0.000000 0.000000 -1.000000
vn 0.000000 0.000000 -1.000000
vn 0.000000 0.000000 -1.000000
vn 0.000000 0.000000 -1.000000
vn 0.787571 0.000000 0.616224
vn 0.787571 0.000000 0.616224
vn 0.787571 0.000000 0.616224
vn 0.787571 0.000000 0.616224
vn 0.000000 -1.000000 0.000000
vn 0.000000 -1.000000 0.000000
vn 0.000000 -1.000000 0.000000
vn 0.000000 -1.000000 0.000000
vn 0.000000 -0.894878 -0.446310
vn 0.000000 -0.894878 -0.446310
vn 0.000000 -0.894878 -0.446310
vn 0.000000 -0.894878 -0.446310
vn 0.000000 -0.957859 -0.287238
vn 0.000000 -0.957859 -0.287238
vn 0.000000 -0.957859 -0.287238
vn 0.000000 -0.957859 -0.287238
vn 0.787571 0.000000 0.616224
vn 0.787571 0.000000 0.616224
vn 0.787571 0.000000 0.616224
vn 0.787571 0.000000 0.616224
vn 0.000000 -1.000000 0.000000
vn 0.000000 -1.000000 0.000000
vn 0.000000 -1.000000 0.000000
vn 0.000000 -1.000000 0.000000
vn 0.000000 0.957859 -0.287238
vn 0.000000 0.957859 -0.287238
vn 0.000000 0.957859 -0.287238
vn 0.000000 0.957859 -0.287238
vn 0.000000 1.000000 0.000000
vn 0.000000 1.000000 0.000000
vn 0.000000 1.000000 0.000000
vn 0.000000 1.000000 0.000000
vn -0.461252 0.886461 -0.037873
vn -0.461252 0.886461 -0.037873
vn -0.461252 0.886461 -0.037873
vn -0.461252 0.886461 -0.037873
vn 0.000000 -0.957859 -0.287238
vn 0.000000 -0.957859 -0.287238
vn 0.000000 -0.957859 -0.287238
vn 0.000000 -0.957859 -0.287238
vn 0.000000 -1.000000 0.000000
vn 0.000000 -1.000000 0.000000
vn 0.000000 -1.000000 0.000000
vn 0.000000 -1.000000 0.000000
vn 0.000000 -1.000000 0.000000
vn 0.000000 -1.000000 0.000000
vn 0.000000 -1.000000 0.000000
vn 0.000000 -1.000000 0.000000
vn 0.000000 1.000000 0.000000
vn 0.000000 1.000000 0.000000
vn 0.000000 1.000000 0.000000
vn 0.000000 1.000000 0.000000
vn 0.000000 0.957859 -0.287238
vn 0.000000 0.957859 -0.287238
vn 0.000000 0.957859 -0.287238
vn 0.000000 0.957859 -0.287238
vn 0.000000 1.000000 0.000000
vn 0.000000 1.000000 0.000000
vn 0.000000 1.000000 0.000000
vn 0.000000 1.000000 0.000000
vn -0.461252 -0.886461 -0.037873
vn -0.461252 -0.886461 -0.037873
vn -0.461252 -0.886461 -0.037873
vn -0.461252 -0.886461 -0.037873
vn -1.000000 0.000000 0.000000
vn -1.000000 0.000000 0.000000
vn -1.000000 0.000000 0.000000
vn -1.000000 0.000000 0.000000
vn -0.554412 -0.665813 -0.499321
vn -0.554412 -0.665813 -0.499321
vn -0.554412 -0.665813 -0.499321
vn -0.554412 -0.665813 -0.499321
vn -0.662145 0.000000 -0.749376
vn -0.662145 0.000000 -0.749376
vn -0.662145 0.000000 -0.749376
vn -0.662145 0.000000 -0.749376
vn -0.839101 0.000000 -0.543976
vn -0.839101 0.000000 -0.543976
vn -0.839101 0.000000 -0.543976
vn -0.839101 0.000000 -0.543976
vn -0.554412 0.665813 -0.499321
vn -0.554412 0.665813 -0.499321
vn -0.554412 0.665813 -0.499321
vn -0.554412 0.665813 -0.499321
vn -0.812441 0.583044 0.000000
vn -0.812441 0.583044 0.000000
vn -0.812441 0.583044 0.000000
vn 0.487224 -0.043372 0.872199
vn 0.487224 -0.043372 0.872199
vn 0.487224 -0.043372 0.872199
vn 0.487224 -0.043372 0.872199
vn 0.499413 0.000000 0.866364
vn 0.499413 0.000000 0.866364
vn 0.499413 0.000000 0.866364
vn 0.499413 0.000000 0.866364
vn 0.487224 0.043372 0.872199
vn 0.487224 0.043372 0.872199
vn 0.487224 0.043372 0.872199
vn 0.487224 0.043372 0.872199
vn -0.894878 0.000000 -0.446310
vn -0.894878 0.000000 -0.446310
vn -0.894878 0.000000 -0.446310
vn -0.894878 0.000000 -0.446310
vn -0.894878 0.000000 -0.446310
vn -0.894878 0.000000 -0.446310
vn -0.894878 0.000000 -0.446310
vn 0.000000 0.894878 -0.446310
vn 0.000000 0.894878 -0.446310
vn 0.000000 0.894878 -0.446310
vn -0.407252 0.874296 -0.264105
vn -0.407252 0.874296 -0.264105
vn -0.407252 0.874296 -0.264105
vn -0.812441 -0.583044 0.000000
vn -0.812441 -0.583044 0.000000
vn -0.812441 -0.583044 0.000000
vn -0.407252 -0.874296 -0.264105
vn -0.407252 -0.874296 -0.264105
vn -0.407252 -0.874296 -0.264105
vn 0.000000 -0.894878 -0.446310
vn 0.000000 -0.894878 -0.446310
vn 0.000000 -0.894878 -0.446310
vn -0.894878 0.000000 -0.446310
vn -0.894878 0.000000 -0.446310
vn -0.894878 0.000000 -0.446310
vn 0.000000 1.000000 0.000000
vn 0.000000 1.000000 0.000000
vn 0.000000 1.000000 0.000000
vn 0.000000 1.000000 0.000000
vn 0.000000 0.894878 -0.446310
vn 0.000000 0.894878 -0.446310
vn 0.000000 0.894878 -0.446310
vn 0.000000 0.894878 -0.446310
vn -0.787571 0.000000 0.616224
vn -0.787571 0.000000 0.616224
vn -0.787571 0.000000 0.616224
vn -0.787571 0.000000 0.616224
vn 0.000000 0.000000 -1.000000
vn 0.000000 0.000000 -1.000000
vn 0.000000 0.000000 -1.000000
vn 0.000000 0.000000 -1.000000
vn -0.787571 0.000000 0.616224
vn -0.787571 0.000000 0.616224
vn -0.787571 0.000000 0.616224
vn -0.787571 0.000000 0.616224
vn 0.000000 -1.000000 0.000000
vn 0.000000 -1.000000 0.000000
vn 0.000000 -1.000000 0.000000
vn 0.000000 -1.000000 0.000000
vn 0.000000 -0.894878 -0.446310
vn 0.000000 -0.894878 -0.446310
vn 0.000000 -0.894878 -0.446310
vn 0.000000 -0.894878 -0.446310
vn 0.000000 -0.957859 -0.287238
vn 0.000000 -0.957859 -0.287238
vn 0.000000 -0.957859 -0.287238
vn 0.000000 -0.957859 -0.287238
vn -0.787571 0.000000 0.616224
vn -0.787571 0.000000 0.616224
vn -0.787571 0.000000 0.616224
vn -0.787571 0.000000 0.616224
vn 0.000000 -1.000000 0.000000
vn 0.000000 -1.000000 0.000000
vn 0.000000 -1.000000 0.000000
vn 0.000000 -1.000000 0.000000
vn 0.000000 0.957859 -0.287238
vn 0.000000 0.957859 -0.287238
vn 0.000000 0.957859 -0.287238
vn 0.000000 0.957859 -0.287238
vn 0.000000 1.000000 0.000000
vn 0.000000 1.000000 0.000000
vn 0.000000 1.000000 0.000000
vn 0.000000 1.000000 0.000000
s off
g Bomber:Mesh
usemtl initialShadingGroup
f 1/1/1 2/2/2 3/3/3 4/4/4
f 5/5/5 6/6/6 7/7/7 8/8/8
f 6/6/9 9/9/10 10/10/11 7/7/12
f 9/9/13 11/11/14 12/12/15 10/10/16
f 2/2/17 13/13/18 14/14/19 3/3/20
f 15/15/21 16/16/22 17/17/23 18/18/24
f 18/18/25 17/17/26 13/13/27 2/2/28
f 9/9/29 19/19/30 20/20/31 11/11/32
f 19/21/33 1/22/34 4/23/35 20/24/36
f 5/5/37 21/25/38 22/26/39 6/6/40
f 21/27/41 23/28/42 24/29/43 22/30/44
f 22/30/45 24/29/46 1/22/47 19/21/48
f 23/31/49 15/15/50 18/18/51 24/32/52
f 18/18/53 2/2/54 24/32/55
f 11/33/56 20/34/57 25/35/58 12/36/59
f 20/34/60 4/37/61 26/38/62 25/35/63
f 4/37/64 3/39/65 14/40/66 26/38/67
f 23/31/68 27/41/69 15/15/70
f 23/28/71 21/27/72 28/42/73 27/43/74
f 16/16/75 15/15/76 27/41/77
f 1/1/78 24/32/79 2/2/80
f 6/6/81 22/26/82 9/9/83
f 22/44/84 19/19/85 9/9/86
f 5/5/87 8/8/88 28/45/89
f 21/25/90 5/5/91 28/45/92
f 13/13/93 17/17/94 29/46/95 30/47/96
f 16/16/97 27/41/98 31/48/99 32/49/100
f 12/36/101 25/35/102 33/50/103 34/51/104
f 27/43/105 28/42/106 35/52/107 31/53/108
f 25/35/109 26/38/110 36/54/111 33/50/112
f 7/7/113 10/10/114 37/55/115 38/56/116
f 28/45/117 8/8/118 39/57/119 35/58/120
f 8/8/121 7/7/122 38/56/123 39/57/124
f 26/38/125 14/40/126 40/59/127 36/54/128
f 10/10/129 12/12/130 34/60/131 37/55/132
f 17/17/133 16/16/134 32/49/135 29/46/136
f 14/14/137 13/13/138 30/47/139 40/61/140
f 41/62/141 42/63/142 43/64/143 44/65/144
f 45/66/145 46/67/146 47/68/147 48/69/148
f 48/69/149 47/68/150 49/70/151 50/71/152
f 50/71/153 49/70/154 51/72/155 52/73/156
f 44/65/157 43/64/158 53/74/159 54/75/160
f 55/76/161 56/77/162 57/78/163 58/79/164
f 56/77/165 44/65/166 54/75/167 57/78/168
f 50/71/169 52/73/170 59/80/171 60/81/172
f 60/82/173 59/83/174 42/84/175 41/85/176
f 45/66/177 48/69/178 61/86/179 62/87/180
f 62/88/181 61/89/182 63/90/183 64/91/184
f 61/89/185 60/82/186 41/85/187 63/90/188
f 64/92/189 63/93/190 56/77/191 55/76/192
f 56/77/193 63/93/194 44/65/195
f 52/94/196 51/95/197 65/96/198 59/97/199
f 59/97/200 65/96/201 66/98/202 42/99/203
f 42/99/204 66/98/205 53/100/206 43/101/207
f 64/92/208 55/76/209 67/102/210
f 64/91/211 67/103/212 68/104/213 62/88/214
f 58/79/215 67/102/216 55/76/217
f 41/62/218 44/65/219 63/93/220
f 48/69/221 50/71/222 61/86/223
f 61/105/224 50/71/225 60/81/226
f 45/66/227 68/106/228 46/67/229
f 62/87/230 68/106/231 45/66/232
f 54/75/233 30/47/234 29/46/235 57/78/236
f 58/79/237 32/49/238 31/48/239 67/102/240
f 51/95/241 34/51/242 33/50/243 65/96/244
f 67/103/245 31/107/246 35/108/247 68/104/248
f 65/96/249 33/50/250 36/54/251 66/98/252
f 47/68/253 38/56/254 37/55/255 49/70/256
f 68/106/257 35/58/258 39/57/259 46/67/260
f 46/67/261 39/57/262 38/56/263 47/68/264
f 66/98/265 36/54/266 40/59/267 53/100/268
f 49/70/269 37/55/270 34/60/271 51/72/272
f 57/78/273 29/46/274 32/49/275 58/79/276
f 53/74/277 40/61/278 30/47/279 54/75/280
