# Blender v2.83.3 OBJ File: ''
# www.blender.org
mtllib Bullet.mtl
o Sphere
v -0.015586 -0.026517 0.042904
v -0.022042 0.000000 0.060676
v -0.035665 0.000000 0.023176
v -0.025219 -0.026517 0.016388
v -0.015586 0.026516 0.042904
v -0.025219 0.026516 0.016388
v -0.035665 0.000000 -0.023176
v -0.025219 -0.026517 -0.016388
v -0.025219 0.026516 -0.016388
v -0.022042 0.000000 -0.060676
v -0.015586 -0.026517 -0.042904
v -0.015586 0.026516 -0.042904
v 0.000000 -0.000000 -0.075000
v 0.000000 -0.026517 -0.053034
v 0.000000 0.026516 -0.053034
v 0.022042 -0.000000 -0.060676
v 0.015586 -0.026517 -0.042904
v 0.015586 0.026516 -0.042904
v 0.035665 -0.000000 -0.023176
v 0.025219 -0.026517 -0.016388
v 0.025219 0.026516 -0.016388
v 0.035665 -0.000000 0.023176
v 0.025219 -0.026517 0.016388
v 0.025219 0.026516 0.016388
v 0.022042 -0.000000 0.060676
v 0.015586 -0.026517 0.042904
v 0.015586 0.026516 0.042904
v 0.000000 -0.000000 0.075000
v 0.000000 -0.026517 0.053032
v 0.000000 0.026516 0.053032
v 0.000000 -0.037500 0.000000
v 0.000000 0.037500 0.000000
vn -0.8546 -0.4162 0.3105
vn -0.8546 0.4162 0.3105
vn -0.9304 -0.3665 0.0000
vn -0.9304 0.3665 0.0000
vn -0.8546 -0.4162 -0.3105
vn -0.8546 0.4162 -0.3105
vn -0.4475 -0.5705 -0.6887
vn -0.4475 0.5705 -0.6886
vn 0.4475 -0.5705 -0.6887
vn 0.4475 0.5705 -0.6886
vn 0.8546 -0.4162 -0.3105
vn 0.8546 0.4162 -0.3105
vn 0.9304 -0.3665 -0.0000
vn 0.9304 0.3665 -0.0000
vn 0.8546 -0.4162 0.3105
vn 0.8546 0.4162 0.3105
vn 0.4475 -0.5705 0.6887
vn 0.4475 0.5705 0.6886
vn -0.1307 -0.9708 0.2011
vn -0.4475 -0.5705 0.6887
vn -0.4475 0.5705 0.6886
vn -0.1307 0.9708 0.2011
vn -0.3299 -0.9364 0.1199
vn -0.3299 0.9364 0.1199
vn -0.3993 -0.9168 0.0000
vn -0.3993 0.9168 0.0000
vn -0.3299 -0.9364 -0.1199
vn -0.3299 0.9364 -0.1199
vn -0.1307 -0.9708 -0.2011
vn -0.1307 0.9708 -0.2011
vn 0.1307 -0.9708 -0.2011
vn 0.1307 0.9708 -0.2011
vn 0.3299 -0.9364 -0.1199
vn 0.3299 0.9364 -0.1199
vn 0.3993 -0.9168 -0.0000
vn 0.3993 0.9168 0.0000
vn 0.3299 -0.9364 0.1199
vn 0.3299 0.9364 0.1199
vn 0.1307 -0.9708 0.2011
vn 0.1307 0.9708 0.2011
usemtl None
s off
f 1//1 2//1 3//1 4//1
f 2//2 5//2 6//2 3//2
f 4//3 3//3 7//3 8//3
f 3//4 6//4 9//4 7//4
f 8//5 7//5 10//5 11//5
f 7//6 9//6 12//6 10//6
f 11//7 10//7 13//7 14//7
f 10//8 12//8 15//8 13//8
f 14//9 13//9 16//9 17//9
f 13//10 15//10 18//10 16//10
f 17//11 16//11 19//11 20//11
f 16//12 18//12 21//12 19//12
f 20//13 19//13 22//13 23//13
f 19//14 21//14 24//14 22//14
f 23//15 22//15 25//15 26//15
f 22//16 24//16 27//16 25//16
f 26//17 25//17 28//17 29//17
f 25//18 27//18 30//18 28//18
f 31//19 29//19 1//19
f 29//20 28//20 2//20 1//20
f 28//21 30//21 5//21 2//21
f 30//22 32//22 5//22
f 31//23 1//23 4//23
f 5//24 32//24 6//24
f 31//25 4//25 8//25
f 6//26 32//26 9//26
f 31//27 8//27 11//27
f 9//28 32//28 12//28
f 31//29 11//29 14//29
f 12//30 32//30 15//30
f 31//31 14//31 17//31
f 15//32 32//32 18//32
f 31//33 17//33 20//33
f 18//34 32//34 21//34
f 31//35 20//35 23//35
f 21//36 32//36 24//36
f 31//37 23//37 26//37
f 24//38 32//38 27//38
f 31//39 26//39 29//39
f 27//40 32//40 30//40
