# Blender v2.83.3 OBJ File: ''
# www.blender.org
mtllib MissileBig.mtl
o Cylinder_Cylinder.001
v 0.000000 0.062500 -0.160771
v 0.000000 0.062500 0.151729
v 0.073473 0.050564 -0.160771
v 0.073473 0.050564 0.151729
v 0.118882 0.019314 -0.160771
v 0.118882 0.019314 0.151729
v 0.118882 -0.019314 -0.160771
v 0.118882 -0.019314 0.151729
v 0.073473 -0.050564 -0.160771
v 0.073473 -0.050564 0.151729
v -0.000000 -0.062500 -0.160771
v -0.000000 -0.062500 0.151729
v -0.073473 -0.050564 -0.160771
v -0.073473 -0.050564 0.151729
v -0.118882 -0.019314 -0.160771
v -0.118882 -0.019314 0.151729
v -0.118882 0.019314 -0.160771
v -0.118882 0.019314 0.151729
v -0.073473 0.050564 -0.160771
v -0.073473 0.050564 0.151729
v -0.000000 0.050000 -0.285771
v 0.058779 0.040451 -0.285771
v 0.095106 0.015451 -0.285771
v 0.095106 -0.015451 -0.285771
v 0.058779 -0.040451 -0.285771
v -0.000000 -0.050000 -0.285771
v -0.058779 -0.040451 -0.285771
v -0.095106 -0.015451 -0.285771
v -0.095106 0.015451 -0.285771
v -0.058778 0.040451 -0.285771
v -0.000000 0.025000 -0.410771
v 0.029389 0.020225 -0.410771
v 0.047553 0.007725 -0.410771
v 0.047553 -0.007725 -0.410771
v 0.029389 -0.020225 -0.410771
v -0.000000 -0.025000 -0.410771
v -0.029389 -0.020225 -0.410771
v -0.047553 -0.007725 -0.410771
v -0.047553 0.007725 -0.410771
v -0.029389 0.020225 -0.410771
v -0.000000 0.000000 -0.473271
v -0.000000 0.000000 -0.473271
v -0.000000 0.000000 -0.473271
v -0.000000 0.000000 -0.473271
v -0.000000 0.000000 -0.473271
v -0.000000 0.000000 -0.473271
v -0.000000 0.000000 -0.473271
v -0.000000 0.000000 -0.473271
v -0.000000 0.000000 -0.473271
v -0.000000 0.000000 -0.473271
v 0.110210 0.050564 0.214229
v 0.000000 0.062500 0.214229
v 0.178323 0.019314 0.214229
v 0.178323 -0.019314 0.214229
v 0.110210 -0.050564 0.214229
v -0.000000 -0.062500 0.214229
v -0.110210 -0.050564 0.214229
v -0.178323 -0.019314 0.214229
v -0.178323 0.019314 0.214229
v -0.110210 0.050564 0.214229
v 0.112710 0.091740 0.283439
v 0.236292 0.035042 0.283439
v 0.236292 -0.035042 0.283439
v 0.112710 -0.091740 0.283439
v -0.112710 -0.091740 0.283439
v -0.236292 -0.035042 0.283439
v -0.236292 0.035042 0.283439
v -0.112710 0.091740 0.283439
v 0.082657 0.050564 0.214229
v -0.000000 0.062500 0.214229
v 0.133742 0.019314 0.214229
v 0.133742 -0.019314 0.214229
v 0.082657 -0.050564 0.214229
v -0.000000 -0.062500 0.214229
v -0.082657 -0.050564 0.214229
v -0.133742 -0.019314 0.214229
v -0.133742 0.019314 0.214229
v -0.082657 0.050564 0.214229
v 0.041329 0.050564 0.287925
v -0.000000 0.062500 0.287925
v 0.066871 0.019314 0.287925
v 0.066871 -0.019314 0.287925
v 0.041329 -0.050564 0.287925
v -0.000000 -0.062500 0.287925
v -0.041329 -0.050564 0.287925
v -0.066871 -0.019314 0.287925
v -0.066871 0.019314 0.287925
v -0.041329 0.050564 0.287925
v 0.061993 0.075845 0.412925
v -0.000000 0.093750 0.412925
v 0.100307 0.028970 0.412925
v 0.100307 -0.028970 0.412925
v 0.061993 -0.075845 0.412925
v -0.000000 -0.093750 0.412925
v -0.061993 -0.075845 0.412925
v -0.100307 -0.028970 0.412925
v -0.100307 0.028970 0.412925
v -0.061993 0.075845 0.412925
vt 1.000000 0.500000
vt 1.000000 1.000000
vt 0.900000 1.000000
vt 0.900000 0.500000
vt 0.800000 1.000000
vt 0.800000 0.500000
vt 0.700000 1.000000
vt 0.700000 0.500000
vt 0.600000 1.000000
vt 0.600000 0.500000
vt 0.500000 1.000000
vt 0.500000 0.500000
vt 0.400000 1.000000
vt 0.400000 0.500000
vt 0.300000 1.000000
vt 0.300000 0.500000
vt 0.200000 1.000000
vt 0.200000 0.500000
vt -0.000000 1.000000
vt 0.100000 1.000000
vt 0.100000 1.000000
vt -0.000000 1.000000
vt 0.100000 0.500000
vt -0.000000 0.500000
vt 0.300000 0.500000
vt 0.400000 0.500000
vt 0.300000 0.500000
vt 0.400000 0.500000
vt 0.500000 0.500000
vt 0.600000 0.500000
vt 0.700000 0.500000
vt 0.900000 0.500000
vt 1.000000 0.500000
vt 0.800000 0.500000
vt -0.000000 0.500000
vt 0.100000 0.500000
vt 0.200000 0.500000
vt 0.700000 0.500000
vt 0.600000 0.500000
vt 0.600000 0.500000
vt 0.700000 0.500000
vt 0.900000 0.500000
vt 1.000000 0.500000
vt 0.200000 0.500000
vt 0.500000 0.500000
vt 0.800000 0.500000
vt 0.100000 0.500000
vt -0.000000 0.500000
vt 0.750000 0.490000
vt 0.891068 0.444164
vt 0.978254 0.324164
vt 0.978254 0.175836
vt 0.891068 0.055836
vt 0.750000 0.010000
vt 0.608932 0.055836
vt 0.521746 0.175836
vt 0.521746 0.324164
vt 0.608932 0.444164
vt 0.900000 0.500000
vt 1.000000 0.500000
vt 0.200000 0.500000
vt 0.300000 0.500000
vt 0.500000 0.500000
vt 0.800000 0.500000
vt 0.100000 0.500000
vt 0.400000 0.500000
vt -0.000000 0.500000
vt 0.400000 1.000000
vt 0.500000 1.000000
vt 0.500000 1.000000
vt 0.400000 1.000000
vt 0.200000 1.000000
vt 0.300000 1.000000
vt 0.600000 1.000000
vt 0.700000 1.000000
vt 1.000000 1.000000
vt 0.900000 1.000000
vt 0.800000 1.000000
vt 0.021746 0.324164
vt 0.021746 0.175836
vt 0.021746 0.175836
vt 0.021746 0.324164
vt 0.391068 0.055836
vt 0.478254 0.175836
vt 0.478254 0.175836
vt 0.391068 0.055836
vt 0.478254 0.324164
vt 0.391068 0.444164
vt 0.391068 0.444164
vt 0.478254 0.324164
vt 0.108932 0.444164
vt 0.108932 0.444164
vt 0.108932 0.055836
vt 0.108932 0.055836
vt 0.500000 1.000000
vt 0.400000 1.000000
vt 0.800000 1.000000
vt 0.700000 1.000000
vt 0.100000 1.000000
vt -0.000000 1.000000
vt 0.300000 1.000000
vt 0.600000 1.000000
vt 1.000000 1.000000
vt 0.900000 1.000000
vt 0.200000 1.000000
vt 0.700000 1.000000
vt 0.800000 1.000000
vt 0.800000 1.000000
vt 0.700000 1.000000
vt 0.100000 1.000000
vt -0.000000 1.000000
vt 0.300000 1.000000
vt 0.600000 1.000000
vt 1.000000 1.000000
vt 0.900000 1.000000
vt 0.200000 1.000000
vt 0.391068 0.444164
vt 0.250000 0.490000
vt 0.108932 0.444164
vt 0.021746 0.324164
vt 0.021746 0.175836
vt 0.108932 0.055836
vt 0.250000 0.010000
vt 0.391068 0.055836
vt 0.478254 0.175836
vt 0.478254 0.324164
vt 0.100000 1.000000
vt -0.000000 1.000000
vt 0.400000 1.000000
vt 0.300000 1.000000
vt 0.600000 1.000000
vt 1.000000 1.000000
vt 0.900000 1.000000
vt 0.200000 1.000000
vt 0.500000 1.000000
vn 0.1604 0.9871 0.0000
vn 0.5669 0.8238 0.0000
vn 1.0000 -0.0000 -0.0000
vn 0.5669 -0.8238 -0.0000
vn 0.1604 -0.9871 -0.0000
vn -0.1604 -0.9871 -0.0000
vn -0.5669 -0.8238 -0.0000
vn -1.0000 0.0000 0.0000
vn -0.1288 0.9909 -0.0379
vn -0.5669 0.8238 0.0000
vn -0.1604 0.9871 0.0000
vn -0.5619 -0.8166 -0.1321
vn -0.5478 -0.7960 -0.2576
vn -0.1596 -0.9823 -0.0982
vn 0.1596 -0.9823 -0.0982
vn 0.5619 -0.8166 -0.1321
vn 0.1596 0.9823 -0.0982
vn 0.9824 -0.0000 -0.1869
vn 0.5619 0.8166 -0.1321
vn -0.1596 0.9823 -0.0982
vn -0.5619 0.8166 -0.1321
vn -0.9824 -0.0000 -0.1869
vn 0.5003 -0.7269 -0.4705
vn 0.5478 -0.7960 -0.2576
vn 0.1573 0.9684 -0.1937
vn -0.9347 0.0000 -0.3556
vn 0.1573 -0.9684 -0.1937
vn 0.5478 0.7960 -0.2576
vn -0.5478 0.7960 -0.2576
vn -0.1573 -0.9684 -0.1937
vn 0.9347 -0.0000 -0.3556
vn -0.1573 0.9684 -0.1937
vn 0.0000 0.0000 1.0000
vn 0.1492 0.9181 -0.3672
vn -0.7958 0.0000 -0.6055
vn 0.1492 -0.9181 -0.3672
vn 0.5003 0.7269 -0.4705
vn -0.5003 0.7269 -0.4705
vn -0.1492 -0.9181 -0.3672
vn 0.7958 -0.0000 -0.6055
vn -0.1492 0.9181 -0.3672
vn -0.5003 -0.7269 -0.4705
vn -0.4522 0.8213 -0.3479
vn -0.7246 0.0000 -0.6892
vn -0.4522 -0.8213 -0.3479
vn -0.1288 -0.9909 -0.0379
vn 0.1288 -0.9909 -0.0379
vn 0.4522 -0.8213 -0.3479
vn 0.1288 0.9909 -0.0379
vn 0.7246 -0.0000 -0.6892
vn 0.4522 0.8213 -0.3479
vn -0.7666 0.0000 -0.6421
vn 0.3645 -0.7944 -0.4858
vn 0.3645 0.7944 -0.4858
vn -0.3645 0.7944 -0.4858
vn -0.3645 -0.7944 -0.4858
vn 0.7666 -0.0000 -0.6421
vn -0.1888 -0.9806 0.0529
vn 0.9660 -0.0000 -0.2584
vn 0.7406 -0.0000 0.6720
vn -0.1888 0.9806 0.0529
vn -0.5733 -0.7029 0.4209
vn 0.5733 -0.7029 0.4209
vn 0.1888 0.9806 0.0529
vn -0.7406 0.0000 0.6720
vn 0.1888 -0.9806 0.0529
vn 0.5733 0.7029 0.4209
vn -0.5733 0.7029 0.4209
vn -0.2698 0.9342 -0.2335
vn -0.7501 -0.6131 -0.2480
vn 0.7501 -0.6131 -0.2480
vn 0.2698 0.9342 -0.2335
vn -0.9660 0.0000 -0.2584
vn 0.2698 -0.9342 -0.2335
vn 0.7501 0.6131 -0.2480
vn -0.7501 0.6131 -0.2480
vn -0.2698 -0.9342 -0.2335
usemtl None
s off
f 1/1/1 2/2/1 4/3/1 3/4/1
f 3/4/2 4/3/2 6/5/2 5/6/2
f 5/6/3 6/5/3 8/7/3 7/8/3
f 7/8/4 8/7/4 10/9/4 9/10/4
f 9/10/5 10/9/5 12/11/5 11/12/5
f 11/12/6 12/11/6 14/13/6 13/14/6
f 13/14/7 14/13/7 16/15/7 15/16/7
f 15/16/8 16/15/8 18/17/8 17/18/8
f 2/19/9 20/20/9 60/21/9 52/22/9
f 17/18/10 18/17/10 20/20/10 19/23/10
f 19/23/11 20/20/11 2/19/11 1/24/11
f 13/14/12 15/16/12 28/25/12 27/26/12
f 27/26/13 28/25/13 38/27/13 37/28/13
f 11/12/14 13/14/14 27/26/14 26/29/14
f 9/10/15 11/12/15 26/29/15 25/30/15
f 7/8/16 9/10/16 25/30/16 24/31/16
f 1/1/17 3/4/17 22/32/17 21/33/17
f 5/6/18 7/8/18 24/31/18 23/34/18
f 3/4/19 5/6/19 23/34/19 22/32/19
f 19/23/20 1/24/20 21/35/20 30/36/20
f 17/18/21 19/23/21 30/36/21 29/37/21
f 15/16/22 17/18/22 29/37/22 28/25/22
f 34/38/23 35/39/23 45/40/23 44/41/23
f 24/31/24 25/30/24 35/39/24 34/38/24
f 21/33/25 22/32/25 32/42/25 31/43/25
f 28/25/26 29/37/26 39/44/26 38/27/26
f 25/30/27 26/29/27 36/45/27 35/39/27
f 22/32/28 23/34/28 33/46/28 32/42/28
f 29/37/29 30/36/29 40/47/29 39/44/29
f 26/29/30 27/26/30 37/28/30 36/45/30
f 23/34/31 24/31/31 34/38/31 33/46/31
f 30/36/32 21/35/32 31/48/32 40/47/32
f 41/49/33 42/50/33 43/51/33 44/52/33 45/53/33 46/54/33 47/55/33 48/56/33 49/57/33 50/58/33
f 31/43/34 32/42/34 42/59/34 41/60/34
f 38/27/35 39/44/35 49/61/35 48/62/35
f 35/39/36 36/45/36 46/63/36 45/40/36
f 32/42/37 33/46/37 43/64/37 42/59/37
f 39/44/38 40/47/38 50/65/38 49/61/38
f 36/45/39 37/28/39 47/66/39 46/63/39
f 33/46/40 34/38/40 44/41/40 43/64/40
f 40/47/41 31/48/41 41/67/41 50/65/41
f 37/28/42 38/27/42 48/62/42 47/66/42
f 57/68/33 56/69/33 74/70/33 75/71/33
f 20/20/43 18/17/43 59/72/43 60/21/43
f 18/17/44 16/15/44 58/73/44 59/72/44
f 16/15/45 14/13/45 57/68/45 58/73/45
f 14/13/46 12/11/46 56/69/46 57/68/46
f 12/11/47 10/9/47 55/74/47 56/69/47
f 10/9/48 8/7/48 54/75/48 55/74/48
f 4/3/49 2/2/49 52/76/49 51/77/49
f 8/7/50 6/5/50 53/78/50 54/75/50
f 6/5/51 4/3/51 51/77/51 53/78/51
f 59/79/52 58/80/52 66/81/52 67/82/52
f 55/83/53 54/84/53 63/85/53 64/86/53
f 53/87/54 51/88/54 61/89/54 62/90/54
f 60/91/55 59/79/55 67/82/55 68/92/55
f 58/80/56 57/93/56 65/94/56 66/81/56
f 54/84/57 53/87/57 62/90/57 63/85/57
f 75/71/58 74/70/58 84/95/58 85/96/58
f 54/75/33 53/78/33 71/97/33 72/98/33
f 52/22/33 60/21/33 78/99/33 70/100/33
f 58/73/33 57/68/33 75/71/33 76/101/33
f 55/74/33 54/75/33 72/98/33 73/102/33
f 51/77/33 52/76/33 70/103/33 69/104/33
f 59/72/33 58/73/33 76/101/33 77/105/33
f 56/69/33 55/74/33 73/102/33 74/70/33
f 53/78/33 51/77/33 69/104/33 71/97/33
f 60/21/33 59/72/33 77/105/33 78/99/33
f 82/106/59 81/107/59 91/108/59 92/109/59
f 72/98/60 71/97/60 81/107/60 82/106/60
f 70/100/61 78/99/61 88/110/61 80/111/61
f 76/101/62 75/71/62 85/96/62 86/112/62
f 73/102/63 72/98/63 82/106/63 83/113/63
f 69/104/64 70/103/64 80/114/64 79/115/64
f 77/105/65 76/101/65 86/112/65 87/116/65
f 74/70/66 73/102/66 83/113/66 84/95/66
f 71/97/67 69/104/67 79/115/67 81/107/67
f 78/99/68 77/105/68 87/116/68 88/110/68
f 89/117/33 90/118/33 98/119/33 97/120/33 96/121/33 95/122/33 94/123/33 93/124/33 92/125/33 91/126/33
f 80/111/69 88/110/69 98/127/69 90/128/69
f 86/112/70 85/96/70 95/129/70 96/130/70
f 83/113/71 82/106/71 92/109/71 93/131/71
f 79/115/72 80/114/72 90/132/72 89/133/72
f 87/116/73 86/112/73 96/130/73 97/134/73
f 84/95/74 83/113/74 93/131/74 94/135/74
f 81/107/75 79/115/75 89/133/75 91/108/75
f 88/110/76 87/116/76 97/134/76 98/127/76
f 85/96/77 84/95/77 94/135/77 95/129/77
