# This file uses centimeters as units for non-parametric coordinates.

mtllib Asteroid_1.mtl
g default
v 0.906471 -0.021595 -0.309017
v 0.793102 -0.008331 -0.587785
v 0.622612 -0.063181 -0.800310
v 0.343119 -0.094011 -0.881890
v -0.003560 -0.030230 -0.967277
v -0.330771 -0.027395 -0.986834
v -0.619917 -0.037409 -0.861036
v -0.765374 0.035626 -0.252562
v -0.906358 0.056791 -0.108837
v -0.894539 0.076148 0.033251
v -0.836447 0.029643 0.230284
v -0.735572 0.040457 0.531246
v -0.587785 0.000000 0.809017
v -0.309017 0.000000 0.951057
v -0.000000 0.000000 1.000000
v 0.309017 0.000000 0.951057
v 0.587785 0.000000 0.809017
v 0.809017 0.000000 0.587785
v 0.935141 -0.004318 0.309017
v 0.955414 -0.021005 0.000000
v 0.794050 0.084880 -0.293893
v 0.711424 0.126471 -0.558838
v 0.581817 0.186548 -0.732571
v 0.319410 0.192400 -0.829576
v 0.009314 0.174238 -0.828395
v -0.293780 0.199745 -0.943297
v -0.593728 0.191132 -0.799819
v -0.688670 0.139881 -0.401579
v -0.873775 0.151589 -0.222663
v -0.895723 0.157209 -0.004539
v -0.808767 0.145974 0.223046
v -0.695309 0.128160 0.518516
v -0.559017 0.165802 0.761907
v -0.293893 0.152059 0.884271
v -0.000000 0.152059 0.930819
v 0.293893 0.165802 0.896995
v 0.559017 0.173919 0.769421
v 0.769081 0.173919 0.559017
v 0.846573 0.134629 0.293893
v 0.840597 0.085295 0.000000
v 0.628521 0.203342 -0.251891
v 0.563527 0.242958 -0.475484
v 0.461438 0.305287 -0.594110
v 0.257208 0.342185 -0.678493
v -0.001164 0.342668 -0.782334
v -0.235402 0.303549 -0.737624
v -0.458647 0.297220 -0.630232
v -0.494407 0.198432 -0.317730
v -0.719942 0.272408 -0.184244
v -0.841036 0.310814 -0.011808
v -0.744173 0.300324 0.205004
v -0.639455 0.292435 0.439121
v -0.475528 0.260872 0.589756
v -0.250000 0.226042 0.672422
v -0.000000 0.226042 0.712018
v 0.250000 0.260872 0.704669
v 0.475528 0.318599 0.643202
v 0.644277 0.316859 0.475528
v 0.674353 0.245139 0.250000
v 0.665432 0.213262 -0.006890
v 0.476740 0.357443 -0.195309
v 0.412797 0.337029 -0.331270
v 0.331349 0.327256 -0.467907
v 0.183401 0.331446 -0.555114
v -0.001977 0.407659 -0.613776
v -0.184919 0.362920 -0.584334
v -0.367005 0.321613 -0.482713
v -0.453861 0.339090 -0.311378
v -0.654839 0.425310 -0.180852
v -0.622698 0.410673 -0.006456
v -0.553607 0.389740 0.138149
v -0.507240 0.374140 0.269274
v -0.356595 0.322492 0.352549
v -0.181636 0.286234 0.402469
v -0.001865 0.307822 0.440452
v 0.169066 0.339094 0.448609
v 0.305926 0.370716 0.396300
v 0.419200 0.384907 0.292614
v 0.478917 0.373042 0.135060
v 0.476787 0.347350 -0.024934
v 0.249424 0.412193 -0.103273
v 0.242256 0.410000 -0.178234
v 0.177581 0.409070 -0.246091
v 0.085344 0.409849 -0.293930
v -0.016452 0.446476 -0.351663
v -0.113400 0.446428 -0.343812
v -0.174628 0.414139 -0.312018
v -0.235032 0.447792 -0.276033
v -0.307581 0.476722 -0.160093
v -0.348069 0.448085 -0.009864
v -0.330785 0.466364 0.079992
v -0.272264 0.461309 0.136797
v -0.185796 0.415996 0.173409
v -0.096157 0.401444 0.200381
v -0.000377 0.443159 0.225728
v 0.078052 0.413402 0.215589
v 0.150062 0.420263 0.190132
v 0.215833 0.429936 0.144942
v 0.247967 0.428493 0.063590
v 0.254545 0.417720 -0.022443
v -0.016348 0.429218 -0.007859
vt 0.886693 0.850503
vt 0.870044 0.856475
vt 0.857087 0.866397
vt 0.851582 0.882684
vt 0.845897 0.903208
vt 0.844071 0.922370
vt 0.850840 0.939614
vt 0.886322 0.950049
vt 0.894454 0.958719
vt 0.973942 0.633835
vt 0.914529 0.955125
vt 0.932379 0.949726
vt 0.948934 0.941186
vt 0.957847 0.925122
vt 0.961362 0.907090
vt 0.959194 0.888847
vt 0.951504 0.872163
vt 0.939045 0.858661
vt 0.923036 0.850503
vt 0.133145 0.954082
vt 0.182276 0.942658
vt 0.825996 0.831552
vt 0.743544 0.770815
vt 0.818176 0.614198
vt 0.699126 0.941111
vt 0.646701 0.823323
vt 0.555966 0.982878
vt 0.531118 0.853898
vt 0.390042 0.959481
vt 0.405181 0.857919
vt 0.256501 0.936706
vt 0.291139 0.862008
vt 0.151775 0.876890
vt 0.201571 0.816184
vt 0.061091 0.667199
vt 0.128391 0.696439
vt 0.035569 0.597268
vt 0.079844 0.620320
vt 0.037819 0.544355
vt 0.064225 0.554687
vt 0.014009 0.470535
vt 0.059328 0.472325
vt 0.033452 0.346026
vt 0.071247 0.353506
vt 0.061997 0.217903
vt 0.115948 0.257908
vt 0.154999 0.123233
vt 0.193479 0.180064
vt 0.276457 0.057337
vt 0.300244 0.124911
vt 0.417049 0.027947
vt 0.421043 0.104639
vt 0.565892 0.042613
vt 0.543588 0.121602
vt 0.710067 0.105439
vt 0.660209 0.176608
vt 0.836329 0.219489
vt 0.757520 0.268482
vt 0.932328 0.390284
vt 0.829804 0.420467
vt 0.655711 0.702329
vt 0.704460 0.588116
vt 0.592475 0.744795
vt 0.502334 0.768171
vt 0.403202 0.793923
vt 0.320178 0.787602
vt 0.242265 0.753292
vt 0.194905 0.662692
vt 0.139493 0.602982
vt 0.110739 0.546096
vt 0.116778 0.475554
vt 0.131055 0.389174
vt 0.166649 0.317115
vt 0.237390 0.258005
vt 0.327481 0.214869
vt 0.427707 0.194568
vt 0.522476 0.203816
vt 0.605835 0.246030
vt 0.669030 0.328047
vt 0.708353 0.452933
vt 0.578416 0.624749
vt 0.600023 0.558928
vt 0.541391 0.684026
vt 0.480624 0.715940
vt 0.405044 0.731760
vt 0.336683 0.727446
vt 0.264747 0.698104
vt 0.231560 0.636847
vt 0.180743 0.582781
vt 0.178116 0.533885
vt 0.188746 0.483674
vt 0.193862 0.436860
vt 0.234988 0.389402
vt 0.291008 0.351608
vt 0.355616 0.323833
vt 0.422713 0.307839
vt 0.482232 0.318299
vt 0.537992 0.349194
vt 0.578963 0.408950
vt 0.595858 0.479943
vt 0.496746 0.559183
vt 0.496554 0.527741
vt 0.472739 0.589340
vt 0.437250 0.611047
vt 0.396954 0.634585
vt 0.361112 0.634141
vt 0.334594 0.624710
vt 0.311905 0.608759
vt 0.283700 0.570638
vt 0.265175 0.521756
vt 0.267193 0.490616
vt 0.283406 0.468464
vt 0.311396 0.445484
vt 0.341549 0.428261
vt 0.378384 0.415836
vt 0.408762 0.410416
vt 0.438425 0.415192
vt 0.467486 0.428551
vt 0.485849 0.458838
vt 0.494363 0.493829
vt 0.384411 0.503564
vt 0.083145 0.954082
vn 0.708283 0.689476 -0.151522
vn 0.757994 0.513728 -0.401906
vn 0.703041 0.652822 -0.282058
vn 0.649134 0.751659 -0.116763
vn 0.461193 0.299434 -0.835249
vn 0.490247 0.537410 -0.686184
vn 0.219144 0.303780 -0.927197
vn 0.221618 0.461749 -0.858879
vn 0.175474 0.361178 -0.915838
vn 0.147942 0.461000 -0.874981
vn -0.134466 0.320245 -0.937743
vn -0.101441 0.557037 -0.824269
vn -0.735045 0.270002 -0.621939
vn -0.671753 0.586317 -0.452748
vn -0.872312 -0.133215 -0.470452
vn -0.781207 0.571258 -0.251753
vn -0.949778 -0.102642 -0.295612
vn -0.721858 0.346662 -0.598955
vn -0.955388 0.186639 0.228909
vn -0.914686 0.397892 0.070939
vn -0.900910 0.281610 0.330239
vn -0.866533 0.352133 0.353726
vn -0.857611 0.330783 0.393810
vn -0.782260 0.473745 0.404518
vn -0.592329 0.362400 0.719592
vn -0.463825 0.659216 0.591861
vn -0.271818 0.387778 0.880763
vn -0.181720 0.726143 0.663095
vn -0.010860 0.390108 0.920705
vn -0.034287 0.728970 0.683686
vn 0.274987 0.331393 0.902530
vn 0.163577 0.649210 0.742811
vn 0.559863 0.283250 0.778668
vn 0.459720 0.548072 0.698766
vn 0.790545 0.338530 0.510329
vn 0.722128 0.564189 0.400277
vn 0.837576 0.533454 0.117865
vn 0.743345 0.668397 0.026168
vn 0.725749 0.683356 -0.079454
vn 0.650802 0.752458 -0.101311
vn 0.542688 0.834672 -0.093876
vn 0.590894 0.801942 -0.087937
vn 0.359864 0.890770 -0.277537
vn 0.202134 0.852388 -0.482262
vn 0.057608 0.782723 -0.619698
vn -0.141299 0.882121 -0.449329
vn -0.389000 0.912166 -0.128965
vn -0.548766 0.767419 -0.331549
vn -0.509478 0.661672 -0.550111
vn -0.730277 0.681531 0.047023
vn -0.649123 0.690356 0.319449
vn -0.491436 0.787215 0.372538
vn -0.150937 0.918431 0.365654
vn -0.035409 0.951290 0.306257
vn -0.083487 0.944704 0.317119
vn -0.051377 0.913561 0.403444
vn 0.174201 0.893585 0.413714
vn 0.459206 0.871593 0.171625
vn 0.570662 0.816035 -0.091822
vn 0.591510 0.798917 -0.108850
vn 0.375416 0.914084 -0.153343
vn 0.490652 0.865845 -0.097844
vn 0.203778 0.973114 -0.107349
vn 0.230504 0.965956 -0.117457
vn 0.062640 0.977806 -0.199928
vn -0.246019 0.943851 -0.220498
vn -0.424331 0.885228 -0.190563
vn -0.408416 0.701123 -0.584486
vn -0.428379 0.798239 -0.423445
vn -0.334558 0.936804 0.102321
vn -0.302892 0.932529 0.196589
vn -0.151132 0.936455 0.316562
vn 0.046390 0.922499 0.383201
vn -0.047349 0.942160 0.331803
vn -0.132316 0.934906 0.329309
vn -0.111179 0.939351 0.324435
vn -0.006780 0.969454 0.245180
vn 0.250748 0.965781 0.066284
vn 0.445721 0.890865 -0.087712
vn 0.500300 0.861996 -0.081626
vn 0.173856 0.972243 -0.156582
vn 0.193111 0.979600 -0.055614
vn 0.146827 0.972528 -0.180640
vn 0.260919 0.957127 -0.125814
vn 0.161047 0.980245 -0.114820
vn -0.248731 0.961233 -0.119016
vn -0.253090 0.945653 -0.204171
vn -0.079331 0.910314 -0.406245
vn -0.080539 0.976885 -0.198014
vn -0.110204 0.989300 0.095603
vn -0.156251 0.983176 0.094608
vn 0.009901 0.923146 0.384321
vn 0.085706 0.876201 0.474264
vn -0.155958 0.906587 0.392145
vn -0.138778 0.929435 0.341894
vn 0.004015 0.953261 0.302121
vn -0.024374 0.973515 0.227318
vn 0.099835 0.989592 0.103638
vn 0.194226 0.979279 -0.057359
vn 0.216707 0.973525 -0.072711
vn 0.072500 0.997162 0.020272
vn -0.098512 -0.994630 0.031726
vn -0.098512 -0.994630 0.031726
vn -0.098512 -0.994630 0.031726
vn -0.098512 -0.994630 0.031726
vn -0.006049 -0.999872 0.014793
vn -0.006049 -0.999872 0.014793
vn -0.006049 -0.999872 0.014793
vn -0.006049 -0.999872 0.014793
vn 0.017122 -0.999697 0.017700
vn 0.017122 -0.999697 0.017700
vn 0.017122 -0.999697 0.017700
vn 0.017122 -0.999697 0.017700
vn -0.336478 -0.941368 0.024697
vn -0.336478 -0.941368 0.024697
vn -0.336478 -0.941368 0.024697
vn -0.336478 -0.941368 0.024697
vn -0.031693 -0.999352 -0.017046
vn -0.031693 -0.999352 -0.017046
vn -0.031693 -0.999352 -0.017047
vn -0.031693 -0.999352 -0.017047
vn 0.060126 -0.997096 0.046736
vn 0.060126 -0.997096 0.046736
vn 0.060126 -0.997096 0.046736
vn 0.060126 -0.997096 0.046736
vn 0.139197 -0.989914 0.026365
vn 0.139197 -0.989914 0.026365
vn 0.139197 -0.989914 0.026365
vn 0.139197 -0.989914 0.026365
vn -0.073208 -0.997187 0.016057
vn -0.073208 -0.997187 0.016057
vn -0.073208 -0.997187 0.016057
vn -0.073208 -0.997187 0.016057
vn -0.226366 -0.973312 0.037709
vn -0.226366 -0.973312 0.037709
vn -0.226366 -0.973312 0.037709
vn -0.860957 -0.489515 0.138303
vn -0.860957 -0.489515 0.138303
vn -0.860957 -0.489515 0.138303
s 1
g pSphere1
usemtl initialShadingGroup
f 1/10/1 2/22/2 22/23/3 21/24/4
f 2/22/2 3/25/5 23/26/6 22/23/3
f 3/25/5 4/27/7 24/28/8 23/26/6
f 4/27/7 5/29/9 25/30/10 24/28/8
f 5/29/9 6/31/11 26/32/12 25/30/10
f 6/31/11 7/33/13 27/34/14 26/32/12
f 7/33/13 8/35/15 28/36/16 27/34/14
f 8/35/15 9/37/17 29/38/18 28/36/16
f 9/37/17 10/39/19 30/40/20 29/38/18
f 10/39/19 11/41/21 31/42/22 30/40/20
f 11/41/21 12/43/23 32/44/24 31/42/22
f 12/43/23 13/45/25 33/46/26 32/44/24
f 13/45/25 14/47/27 34/48/28 33/46/26
f 14/47/27 15/49/29 35/50/30 34/48/28
f 15/49/29 16/51/31 36/52/32 35/50/30
f 16/51/31 17/53/33 37/54/34 36/52/32
f 17/53/33 18/55/35 38/56/36 37/54/34
f 18/55/35 19/57/37 39/58/38 38/56/36
f 19/57/37 20/59/39 40/60/40 39/58/38
f 20/59/39 1/10/1 21/24/4 40/60/40
f 21/24/4 22/23/3 42/61/41 41/62/42
f 22/23/3 23/26/6 43/63/43 42/61/41
f 23/26/6 24/28/8 44/64/44 43/63/43
f 24/28/8 25/30/10 45/65/45 44/64/44
f 25/30/10 26/32/12 46/66/46 45/65/45
f 26/32/12 27/34/14 47/67/47 46/66/46
f 27/34/14 28/36/16 48/68/48 47/67/47
f 28/36/16 29/38/18 49/69/49 48/68/48
f 29/38/18 30/40/20 50/70/50 49/69/49
f 30/40/20 31/42/22 51/71/51 50/70/50
f 31/42/22 32/44/24 52/72/52 51/71/51
f 32/44/24 33/46/26 53/73/53 52/72/52
f 33/46/26 34/48/28 54/74/54 53/73/53
f 34/48/28 35/50/30 55/75/55 54/74/54
f 35/50/30 36/52/32 56/76/56 55/75/55
f 36/52/32 37/54/34 57/77/57 56/76/56
f 37/54/34 38/56/36 58/78/58 57/77/57
f 38/56/36 39/58/38 59/79/59 58/78/58
f 39/58/38 40/60/40 60/80/60 59/79/59
f 40/60/40 21/24/4 41/62/42 60/80/60
f 41/62/42 42/61/41 62/81/61 61/82/62
f 42/61/41 43/63/43 63/83/63 62/81/61
f 43/63/43 44/64/44 64/84/64 63/83/63
f 44/64/44 45/65/45 65/85/65 64/84/64
f 45/65/45 46/66/46 66/86/66 65/85/65
f 46/66/46 47/67/47 67/87/67 66/86/66
f 47/67/47 48/68/48 68/88/68 67/87/67
f 48/68/48 49/69/49 69/89/69 68/88/68
f 49/69/49 50/70/50 70/90/70 69/89/69
f 50/70/50 51/71/51 71/91/71 70/90/70
f 51/71/51 52/72/52 72/92/72 71/91/71
f 52/72/52 53/73/53 73/93/73 72/92/72
f 53/73/53 54/74/54 74/94/74 73/93/73
f 54/74/54 55/75/55 75/95/75 74/94/74
f 55/75/55 56/76/56 76/96/76 75/95/75
f 56/76/56 57/77/57 77/97/77 76/96/76
f 57/77/57 58/78/58 78/98/78 77/97/77
f 58/78/58 59/79/59 79/99/79 78/98/78
f 59/79/59 60/80/60 80/100/80 79/99/79
f 60/80/60 41/62/42 61/82/62 80/100/80
f 61/82/62 62/81/61 82/101/81 81/102/82
f 62/81/61 63/83/63 83/103/83 82/101/81
f 63/83/63 64/84/64 84/104/84 83/103/83
f 64/84/64 65/85/65 85/105/85 84/104/84
f 65/85/65 66/86/66 86/106/86 85/105/85
f 66/86/66 67/87/67 87/107/87 86/106/86
f 67/87/67 68/88/68 88/108/88 87/107/87
f 68/88/68 69/89/69 89/109/89 88/108/88
f 69/89/69 70/90/70 90/110/90 89/109/89
f 70/90/70 71/91/71 91/111/91 90/110/90
f 71/91/71 72/92/72 92/112/92 91/111/91
f 72/92/72 73/93/73 93/113/93 92/112/92
f 73/93/73 74/94/74 94/114/94 93/113/93
f 74/94/74 75/95/75 95/115/95 94/114/94
f 75/95/75 76/96/76 96/116/96 95/115/95
f 76/96/76 77/97/77 97/117/97 96/116/96
f 77/97/77 78/98/78 98/118/98 97/117/97
f 78/98/78 79/99/79 99/119/99 98/118/98
f 79/99/79 80/100/80 100/120/100 99/119/99
f 80/100/80 61/82/62 81/102/82 100/120/100
f 81/102/82 82/101/81 101/121/101
f 82/101/81 83/103/83 101/121/101
f 83/103/83 84/104/84 101/121/101
f 84/104/84 85/105/85 101/121/101
f 85/105/85 86/106/86 101/121/101
f 86/106/86 87/107/87 101/121/101
f 87/107/87 88/108/88 101/121/101
f 88/108/88 89/109/89 101/121/101
f 89/109/89 90/110/90 101/121/101
f 90/110/90 91/111/91 101/121/101
f 91/111/91 92/112/92 101/121/101
f 92/112/92 93/113/93 101/121/101
f 93/113/93 94/114/94 101/121/101
f 94/114/94 95/115/95 101/121/101
f 95/115/95 96/116/96 101/121/101
f 96/116/96 97/117/97 101/121/101
f 97/117/97 98/118/98 101/121/101
f 98/118/98 99/119/99 101/121/101
f 99/119/99 100/120/100 101/121/101
f 100/120/100 81/102/82 101/121/101
s off
f 5/5/102 4/4/103 16/16/104 15/15/105
f 6/6/106 5/5/107 15/15/108 14/14/109
f 7/7/110 6/6/111 14/14/112 13/13/113
f 8/8/114 7/7/115 13/13/116 12/12/117
f 9/9/118 8/8/119 12/12/120 11/11/121
f 4/4/122 3/3/123 17/17/124 16/16/125
f 3/3/126 2/2/127 18/18/128 17/17/129
f 2/2/130 1/1/131 19/19/132 18/18/133
f 20/20/134 19/122/135 1/21/136
f 10/39/137 9/37/138 11/41/139
