# This file uses centimeters as units for non-parametric coordinates.

mtllib Asteroid_2.mtl
g default
v 1.078808 -0.021595 -0.283867
v 0.900398 -0.008331 -0.524333
v 0.655117 -0.076644 -0.744249
v 0.409565 -0.089793 -0.831931
v 0.060754 -0.102226 -0.867880
v -0.339314 -0.075661 -0.958762
v -0.704726 -0.102764 -0.764220
v -1.041671 -0.110037 -0.606002
v -1.193349 -0.054354 -0.253323
v -1.124367 0.000000 0.000000
v -1.009053 0.000000 0.283866
v -0.809017 0.000000 0.539946
v -0.587785 0.000000 0.743172
v -0.309017 0.000000 0.873651
v -0.000000 0.000000 0.855947
v 0.309017 0.000000 0.793780
v 0.587785 0.000000 0.677677
v 0.809017 0.000000 0.539946
v 1.077171 -0.004318 0.283866
v 1.174486 -0.021005 0.000000
v 0.966387 0.084880 -0.269973
v 0.818045 0.126482 -0.497288
v 0.549222 0.157394 -0.623563
v 0.293893 0.173919 -0.669335
v 0.000000 0.173919 -0.799811
v -0.294832 0.175773 -0.839004
v -0.559017 0.173919 -0.722042
v -0.835849 0.173919 -0.513662
v -1.031710 0.173919 -0.269973
v -1.076913 0.173919 0.000000
v -0.969137 0.173919 0.269973
v -0.769548 0.173919 0.513519
v -0.559017 0.165802 0.699896
v -0.293893 0.152059 0.812301
v -0.000000 0.152059 0.792396
v 0.293893 0.165802 0.744118
v 0.559017 0.173919 0.641303
v 0.769081 0.173919 0.513519
v 0.999024 0.138846 0.273272
v 0.998232 0.134221 -0.000997
v 0.674831 0.287175 -0.229653
v 0.559441 0.276971 -0.371143
v 0.443076 0.317804 -0.539343
v 0.231182 0.298828 -0.601254
v -0.001900 0.293646 -0.647958
v -0.240383 0.301001 -0.679341
v -0.479233 0.330812 -0.625010
v -0.735773 0.330812 -0.437135
v -0.899666 0.330812 -0.229653
v -0.935989 0.330812 0.000000
v -0.847022 0.330812 0.229653
v -0.662394 0.318599 0.426439
v -0.463729 0.277095 0.532942
v -0.250000 0.226042 0.617694
v -0.018897 0.287011 0.701456
v 0.237722 0.314749 0.625912
v 0.494475 0.357411 0.580550
v 0.678740 0.378199 0.444443
v 0.768691 0.361264 0.225793
v 0.750192 0.312765 0.000000
v 0.480697 0.408303 -0.167047
v 0.418016 0.409965 -0.307127
v 0.297944 0.389028 -0.408013
v 0.153975 0.367031 -0.479263
v 0.001245 0.398260 -0.505870
v -0.176061 0.343565 -0.509927
v -0.348656 0.345033 -0.420024
v -0.551094 0.373437 -0.317372
v -0.661434 0.427899 -0.166852
v -0.686611 0.441700 0.000000
v -0.631006 0.424264 0.162563
v -0.511552 0.398279 0.268856
v -0.360385 0.341328 0.329967
v -0.182941 0.377447 0.406820
v -0.032394 0.430398 0.433463
v 0.174191 0.410291 0.413345
v 0.363740 0.483704 0.400418
v 0.546146 0.499333 0.323993
v 0.509599 0.449827 0.158432
v 0.500002 0.414157 -0.005760
v 0.288643 0.440223 -0.134088
v 0.234641 0.398736 -0.193172
v 0.142920 0.390054 -0.239830
v 0.051113 0.424940 -0.271936
v -0.039039 0.436553 -0.278693
v -0.131497 0.422703 -0.267587
v -0.220498 0.458813 -0.267623
v -0.274187 0.498462 -0.194677
v -0.323816 0.482578 -0.089617
v -0.351723 0.483488 0.007892
v -0.320328 0.450011 0.076041
v -0.255327 0.430783 0.130789
v -0.177969 0.431672 0.178442
v -0.085582 0.442253 0.215822
v 0.001465 0.432092 0.211879
v 0.090546 0.468390 0.214467
v 0.182189 0.489606 0.189339
v 0.272094 0.527527 0.137247
v 0.317000 0.519786 0.045626
v 0.321077 0.487045 -0.053786
v -0.000860 0.432452 -0.003465
vt 0.109346 0.787498
vt 0.091269 0.801108
vt 0.074571 0.820248
vt 0.068082 0.838859
vt 0.065570 0.865229
vt 0.059108 0.895587
vt 0.073983 0.923150
vt 0.086118 0.948503
vt 0.113169 0.959729
vt 0.132958 0.955473
vt 0.153805 0.945450
vt 0.172827 0.929958
vt 0.187944 0.913051
vt 0.197536 0.891886
vt 0.195978 0.868570
vt 0.191071 0.845284
vt 0.182120 0.824317
vt 0.171650 0.807659
vt 0.152228 0.787498
vt 0.154613 0.788133
vt 0.156882 0.787181
vt 0.800586 0.971868
vt 0.595820 0.973897
vt 0.586301 0.889060
vt 0.729082 0.873188
vt 0.420507 0.958236
vt 0.458155 0.825487
vt 0.307504 0.892683
vt 0.366988 0.755060
vt 0.189266 0.782409
vt 0.257384 0.682782
vt 0.081212 0.644993
vt 0.182008 0.599829
vt 0.030272 0.482749
vt 0.149513 0.501212
vt 0.008653 0.335461
vt 0.138662 0.377603
vt 0.078409 0.201170
vt 0.160240 0.266774
vt 0.169981 0.141726
vt 0.216098 0.190233
vt 0.277544 0.078827
vt 0.304966 0.140690
vt 0.406237 0.048051
vt 0.417423 0.117476
vt 0.531553 0.045664
vt 0.522920 0.113847
vt 0.657709 0.079081
vt 0.629567 0.139123
vt 0.764760 0.159333
vt 0.720267 0.213179
vt 0.860627 0.260617
vt 0.801065 0.305246
vt 0.932261 0.378120
vt 0.858589 0.407212
vt 0.972579 0.498164
vt 0.889934 0.505681
vt 0.985376 0.684227
vt 0.908519 0.655262
vt 0.943557 0.848744
vt 0.834251 0.767441
vt 0.551103 0.741316
vt 0.631214 0.731566
vt 0.465657 0.735712
vt 0.389037 0.693950
vt 0.315628 0.634926
vt 0.252270 0.570788
vt 0.218497 0.492611
vt 0.208275 0.386612
vt 0.222462 0.300116
vt 0.266170 0.239347
vt 0.336843 0.202370
vt 0.426990 0.188569
vt 0.508946 0.195698
vt 0.595964 0.212874
vt 0.677559 0.260229
vt 0.733010 0.344906
vt 0.783293 0.428498
vt 0.798091 0.508065
vt 0.780339 0.595228
vt 0.724068 0.673308
vt 0.529593 0.660303
vt 0.587871 0.641434
vt 0.468282 0.654421
vt 0.409277 0.633295
vt 0.366215 0.593264
vt 0.316390 0.549148
vt 0.299976 0.482279
vt 0.281514 0.406392
vt 0.296664 0.343538
vt 0.329491 0.299641
vt 0.377950 0.271473
vt 0.431889 0.268172
vt 0.490697 0.279754
vt 0.557194 0.304908
vt 0.602744 0.341378
vt 0.656798 0.393636
vt 0.697548 0.452078
vt 0.724570 0.511710
vt 0.681170 0.553559
vt 0.639788 0.601753
vt 0.510337 0.579444
vt 0.544178 0.576740
vt 0.473827 0.567414
vt 0.440884 0.548611
vt 0.416831 0.526113
vt 0.396190 0.499234
vt 0.376776 0.472180
vt 0.383494 0.440455
vt 0.395715 0.403912
vt 0.411883 0.373674
vt 0.437846 0.362691
vt 0.468692 0.363589
vt 0.500817 0.370527
vt 0.534548 0.384214
vt 0.556418 0.407364
vt 0.582781 0.430464
vt 0.601035 0.460637
vt 0.612892 0.498255
vt 0.601648 0.532340
vt 0.577102 0.560713
vt 0.499718 0.465202
vn 0.663599 0.693260 -0.281118
vn 0.559920 0.573109 -0.598361
vn 0.506291 0.709434 -0.490278
vn 0.589376 0.759237 -0.276035
vn 0.328747 0.542635 -0.772964
vn 0.344953 0.635455 -0.690800
vn 0.217734 0.499632 -0.838427
vn 0.213607 0.529593 -0.820916
vn 0.203938 0.396097 -0.895274
vn 0.188603 0.506040 -0.841637
vn -0.145930 0.389348 -0.909458
vn -0.096920 0.507204 -0.856359
vn -0.445178 0.445466 -0.776773
vn -0.413246 0.514700 -0.751207
vn -0.597392 0.530407 -0.601490
vn -0.558744 0.555958 -0.615399
vn -0.778776 0.543653 -0.312968
vn -0.740234 0.586769 -0.328262
vn -0.913679 0.377426 0.150798
vn -0.852665 0.505375 0.132513
vn -0.836832 0.244320 0.489918
vn -0.765677 0.450495 0.459121
vn -0.706364 0.258960 0.658779
vn -0.599646 0.503711 0.621852
vn -0.516575 0.309310 0.798422
vn -0.374174 0.613992 0.694988
vn -0.168044 0.365053 0.915695
vn -0.145095 0.625166 0.766886
vn 0.109517 0.358133 0.927226
vn 0.057274 0.540127 0.839632
vn 0.260367 0.306792 0.915471
vn 0.214751 0.435909 0.873994
vn 0.430771 0.262091 0.863565
vn 0.389634 0.379243 0.839262
vn 0.613952 0.299013 0.730517
vn 0.620993 0.451927 0.640414
vn 0.761113 0.536457 0.364584
vn 0.731884 0.620292 0.282105
vn 0.712694 0.699059 -0.058165
vn 0.645796 0.752721 -0.127897
vn 0.457774 0.827069 -0.326191
vn 0.486990 0.838218 -0.245421
vn 0.320342 0.783657 -0.532224
vn 0.168146 0.746550 -0.643731
vn 0.110878 0.800638 -0.588800
vn -0.026046 0.858993 -0.511325
vn -0.209435 0.858942 -0.467285
vn -0.368355 0.819138 -0.439690
vn -0.533493 0.801001 -0.271629
vn -0.602016 0.795459 0.069434
vn -0.511960 0.784935 0.348962
vn -0.294223 0.828140 0.477092
vn -0.116898 0.880442 0.459518
vn -0.181689 0.863059 0.471295
vn -0.077824 0.806763 0.585727
vn 0.059176 0.753502 0.654777
vn 0.203349 0.678491 0.705903
vn 0.532636 0.714219 0.454081
vn 0.608980 0.791787 0.047087
vn 0.526409 0.829397 -0.187067
vn 0.277047 0.925954 -0.256620
vn 0.358791 0.902369 -0.238746
vn 0.131858 0.956473 -0.260334
vn 0.125250 0.933140 -0.336991
vn 0.006339 0.940234 -0.340470
vn -0.063908 0.950934 -0.302723
vn -0.043051 0.954010 -0.296667
vn -0.124385 0.957414 -0.260551
vn -0.233674 0.954908 -0.183159
vn -0.278217 0.959093 0.052307
vn -0.206799 0.942525 0.262450
vn -0.044515 0.933809 0.354993
vn -0.060009 0.919106 0.389414
vn -0.262713 0.894841 0.360891
vn -0.137573 0.922499 0.360650
vn -0.073725 0.909413 0.409308
vn -0.061367 0.905600 0.419671
vn 0.297369 0.938761 0.174067
vn 0.394549 0.900083 -0.184882
vn 0.389805 0.895948 -0.212905
vn -0.082100 0.981248 -0.174389
vn -0.002314 0.955462 -0.295107
vn 0.063341 0.994464 -0.083842
vn 0.178035 0.980323 -0.085271
vn -0.058757 0.987574 -0.145760
vn -0.053320 0.959149 -0.277832
vn 0.001441 0.895595 -0.444868
vn -0.063744 0.952152 -0.298904
vn -0.093712 0.989545 -0.109635
vn -0.057954 0.993863 0.094226
vn 0.004679 0.962763 0.270306
vn 0.028763 0.950716 0.308725
vn -0.128638 0.967274 0.218710
vn -0.173457 0.978542 0.111213
vn -0.113523 0.988932 0.095535
vn -0.182938 0.968380 0.169629
vn -0.220752 0.953091 0.207088
vn -0.005208 0.999953 0.008225
vn 0.206868 0.948942 -0.238148
vn 0.166421 0.939408 -0.299695
vn -0.019465 0.997527 -0.067533
vn 0.021184 -0.998078 0.058237
vn 0.021184 -0.998078 0.058237
vn 0.021184 -0.998078 0.058237
vn 0.021184 -0.998078 0.058237
vn -0.042497 -0.997867 0.049550
vn -0.042497 -0.997867 0.049550
vn -0.042497 -0.997867 0.049550
vn -0.042497 -0.997867 0.049550
vn 0.047065 -0.997578 0.051219
vn 0.047065 -0.997578 0.051219
vn 0.047065 -0.997578 0.051219
vn 0.047065 -0.997578 0.051219
vn 0.006613 -0.996847 0.079077
vn 0.006613 -0.996847 0.079077
vn 0.006613 -0.996847 0.079077
vn 0.006613 -0.996847 0.079077
vn -0.121217 -0.984572 0.126191
vn -0.121217 -0.984572 0.126191
vn -0.121217 -0.984572 0.126191
vn -0.121217 -0.984572 0.126191
vn 0.028067 -0.998033 0.056051
vn 0.028067 -0.998033 0.056051
vn 0.028067 -0.998033 0.056051
vn 0.028067 -0.998033 0.056051
vn 0.137408 -0.989598 0.042595
vn 0.137408 -0.989598 0.042595
vn 0.137408 -0.989598 0.042595
vn 0.137408 -0.989598 0.042595
vn -0.038868 -0.999154 0.013462
vn -0.038868 -0.999154 0.013462
vn -0.038868 -0.999154 0.013462
vn -0.038868 -0.999154 0.013462
vn -0.083086 -0.996089 0.030072
vn -0.083086 -0.996089 0.030072
vn -0.083086 -0.996089 0.030072
vn -0.802042 -0.500577 0.325809
vn -0.802042 -0.500577 0.325809
vn -0.802042 -0.500577 0.325809
s 1
g pSphere2
usemtl lambert2SG
f 1/22/1 2/23/2 22/24/3 21/25/4
f 2/23/2 3/26/5 23/27/6 22/24/3
f 3/26/5 4/28/7 24/29/8 23/27/6
f 4/28/7 5/30/9 25/31/10 24/29/8
f 5/30/9 6/32/11 26/33/12 25/31/10
f 6/32/11 7/34/13 27/35/14 26/33/12
f 7/34/13 8/36/15 28/37/16 27/35/14
f 8/36/15 9/38/17 29/39/18 28/37/16
f 9/38/17 10/40/19 30/41/20 29/39/18
f 10/40/19 11/42/21 31/43/22 30/41/20
f 11/42/21 12/44/23 32/45/24 31/43/22
f 12/44/23 13/46/25 33/47/26 32/45/24
f 13/46/25 14/48/27 34/49/28 33/47/26
f 14/48/27 15/50/29 35/51/30 34/49/28
f 15/50/29 16/52/31 36/53/32 35/51/30
f 16/52/31 17/54/33 37/55/34 36/53/32
f 17/54/33 18/56/35 38/57/36 37/55/34
f 18/56/35 19/58/37 39/59/38 38/57/36
f 19/58/37 20/60/39 40/61/40 39/59/38
f 20/60/39 1/22/1 21/25/4 40/61/40
f 21/25/4 22/24/3 42/62/41 41/63/42
f 22/24/3 23/27/6 43/64/43 42/62/41
f 23/27/6 24/29/8 44/65/44 43/64/43
f 24/29/8 25/31/10 45/66/45 44/65/44
f 25/31/10 26/33/12 46/67/46 45/66/45
f 26/33/12 27/35/14 47/68/47 46/67/46
f 27/35/14 28/37/16 48/69/48 47/68/47
f 28/37/16 29/39/18 49/70/49 48/69/48
f 29/39/18 30/41/20 50/71/50 49/70/49
f 30/41/20 31/43/22 51/72/51 50/71/50
f 31/43/22 32/45/24 52/73/52 51/72/51
f 32/45/24 33/47/26 53/74/53 52/73/52
f 33/47/26 34/49/28 54/75/54 53/74/53
f 34/49/28 35/51/30 55/76/55 54/75/54
f 35/51/30 36/53/32 56/77/56 55/76/55
f 36/53/32 37/55/34 57/78/57 56/77/56
f 37/55/34 38/57/36 58/79/58 57/78/57
f 38/57/36 39/59/38 59/80/59 58/79/58
f 39/59/38 40/61/40 60/81/60 59/80/59
f 40/61/40 21/25/4 41/63/42 60/81/60
f 41/63/42 42/62/41 62/82/61 61/83/62
f 42/62/41 43/64/43 63/84/63 62/82/61
f 43/64/43 44/65/44 64/85/64 63/84/63
f 44/65/44 45/66/45 65/86/65 64/85/64
f 45/66/45 46/67/46 66/87/66 65/86/65
f 46/67/46 47/68/47 67/88/67 66/87/66
f 47/68/47 48/69/48 68/89/68 67/88/67
f 48/69/48 49/70/49 69/90/69 68/89/68
f 49/70/49 50/71/50 70/91/70 69/90/69
f 50/71/50 51/72/51 71/92/71 70/91/70
f 51/72/51 52/73/52 72/93/72 71/92/71
f 52/73/52 53/74/53 73/94/73 72/93/72
f 53/74/53 54/75/54 74/95/74 73/94/73
f 54/75/54 55/76/55 75/96/75 74/95/74
f 55/76/55 56/77/56 76/97/76 75/96/75
f 56/77/56 57/78/57 77/98/77 76/97/76
f 57/78/57 58/79/58 78/99/78 77/98/77
f 58/79/58 59/80/59 79/100/79 78/99/78
f 59/80/59 60/81/60 80/101/80 79/100/79
f 60/81/60 41/63/42 61/83/62 80/101/80
f 61/83/62 62/82/61 82/102/81 81/103/82
f 62/82/61 63/84/63 83/104/83 82/102/81
f 63/84/63 64/85/64 84/105/84 83/104/83
f 64/85/64 65/86/65 85/106/85 84/105/84
f 65/86/65 66/87/66 86/107/86 85/106/85
f 66/87/66 67/88/67 87/108/87 86/107/86
f 67/88/67 68/89/68 88/109/88 87/108/87
f 68/89/68 69/90/69 89/110/89 88/109/88
f 69/90/69 70/91/70 90/111/90 89/110/89
f 70/91/70 71/92/71 91/112/91 90/111/90
f 71/92/71 72/93/72 92/113/92 91/112/91
f 72/93/72 73/94/73 93/114/93 92/113/92
f 73/94/73 74/95/74 94/115/94 93/114/93
f 74/95/74 75/96/75 95/116/95 94/115/94
f 75/96/75 76/97/76 96/117/96 95/116/95
f 76/97/76 77/98/77 97/118/97 96/117/96
f 77/98/77 78/99/78 98/119/98 97/118/97
f 78/99/78 79/100/79 99/120/99 98/119/98
f 79/100/79 80/101/80 100/121/100 99/120/99
f 80/101/80 61/83/62 81/103/82 100/121/100
f 81/103/82 82/102/81 101/122/101
f 82/102/81 83/104/83 101/122/101
f 83/104/83 84/105/84 101/122/101
f 84/105/84 85/106/85 101/122/101
f 85/106/85 86/107/86 101/122/101
f 86/107/86 87/108/87 101/122/101
f 87/108/87 88/109/88 101/122/101
f 88/109/88 89/110/89 101/122/101
f 89/110/89 90/111/90 101/122/101
f 90/111/90 91/112/91 101/122/101
f 91/112/91 92/113/92 101/122/101
f 92/113/92 93/114/93 101/122/101
f 93/114/93 94/115/94 101/122/101
f 94/115/94 95/116/95 101/122/101
f 95/116/95 96/117/96 101/122/101
f 96/117/96 97/118/97 101/122/101
f 97/118/97 98/119/98 101/122/101
f 98/119/98 99/120/99 101/122/101
f 99/120/99 100/121/100 101/122/101
f 100/121/100 81/103/82 101/122/101
s off
f 5/5/102 4/4/103 16/16/104 15/15/105
f 6/6/106 5/5/107 15/15/108 14/14/109
f 7/7/110 6/6/111 14/14/112 13/13/113
f 8/8/114 7/7/115 13/13/116 12/12/117
f 9/9/118 8/8/119 12/12/120 11/11/121
f 4/4/122 3/3/123 17/17/124 16/16/125
f 3/3/126 2/2/127 18/18/128 17/17/129
f 2/2/130 1/1/131 19/19/132 18/18/133
f 20/20/134 19/19/135 1/21/136
f 10/10/137 9/9/138 11/11/139
