# Emil's awesome dodecahedron file
# www.emilisawesome.com
#Hither square
v -1.0 -1.0 -1.0
v 1.0 -1.0 -1.0
v 1.0 1.0 -1.0
v -1.0 1.0 -1.0
# Farther square
v -1.0 -1.0 1.0
v 1.0 -1.0 1.0
v 1.0 1.0 1.0
v -1.0 1.0 1.0
# Four in the x = 0 plane, hither down, hither up, then farther down, farther up
v 0 -0.61805 -1.618
v 0 0.61805 -1.618
v 0 -0.61805 1.618
v 0 0.61805 1.618
#Four in the z = 0 plane, lower left, lower right, then upper right, upper left.
v -0.61805 -1.618 0
v 0.61805 -1.618 0
v 0.61805 1.618 0
v -0.61805 1.618 0
# Four in the y = 0 plane, hither left, hither right, then farther left, farther right.
v -1.618 0 -0.61805
v 1.618 0 -0.61805
v -1.618 0 0.61805
v 1.618 0 0.61805
# UVs
vt 0.13090169957 0.19510565158
vt 0.01909830073 0.15877852546
vt 0.0190983003 0.04122147511
vt 0.13090169889 0.00489434819
vt 0.2 0.09999999928
# UVs Face 2
vt 0.33090169957 0.19510565158
vt 0.21909830073 0.15877852546
vt 0.2190983003 0.04122147511
vt 0.33090169889 0.00489434819
vt 0.4 0.09999999928
# UVs Face 3 
vt 0.53090169957 0.19510565158
vt 0.41909830073 0.15877852546
vt 0.4190983003 0.04122147511
vt 0.53090169889 0.00489434819
vt 0.6 0.09999999928
# UVs Face 4
vt 0.73090169957 0.19510565158
vt 0.61909830073 0.15877852546
vt 0.6190983003 0.04122147511
vt 0.73090169889 0.00489434819
vt 0.9 0.09999999928
# UVs Face 5
vt 0.13090169957 0.39510565158
vt 0.01909830073 0.35877852546
vt 0.0190983003 0.24122147511
vt 0.13090169889 0.20489434819
vt 0.2 0.29999999928
# UVs Face 6
vt 0.33090169957 0.39510565158
vt 0.21909830073 0.35877852546
vt 0.2190983003 0.24122147511
vt 0.33090169889 0.20489434819
vt 0.4 0.29999999928
# UVs Face 7
vt 0.53090169957 0.39510565158
vt 0.41909830073 0.35877852546
vt 0.4190983003 0.24122147511
vt 0.53090169889 0.20489434819
vt 0.6 0.29999999928
# UVs Face 8
vt 0.73090169957 0.39510565158
vt 0.61909830073 0.35877852546
vt 0.6190983003 0.24122147511
vt 0.73090169889 0.20489434819
vt 0.9 0.29999999928
# UVs Face 9
vt 0.13090169957 0.59510565158
vt 0.01909830073 0.55877852546
vt 0.0190983003 0.44122147511
vt 0.13090169889 0.40489434819
vt 0.2 0.49999999928
# UVs Face 10
vt 0.33090169957 0.59510565158
vt 0.21909830073 0.55877852546
vt 0.2190983003 0.44122147511
vt 0.33090169889 0.40489434819
vt 0.4 0.49999999928
# UVs Face 11
vt 0.53090169957 0.59510565158
vt 0.41909830073 0.55877852546
vt 0.4190983003 0.44122147511
vt 0.53090169889 0.40489434819
vt 0.6 0.49999999928
# UVs Face 12
vt 0.73090169957 0.59510565158
vt 0.61909830073 0.55877852546
vt 0.6190983003 0.44122147511
vt 0.73090169889 0.40489434819
vt 0.9 0.49999999928
# Normals
vn -1 0 -1
vn 1 0 -1
vn 0 1 -1
vn 0 -1 -1
vn -1 1 0
vn -1 -1 0
vn 1 1 0
vn 1 -1 0
vn 0 1 1
vn 0 -1 1
vn -1 0 1
vn 1 0 1
# Face 1
f 17/1/1 4/2/1 10/3/1
f 17/1/1 10/3/1 9/4/1
f 17/1/1 9/4/1 1/5/1
# Face 2
f 3/6/2 18/7/2 2/8/2
f 3/6/2 2/8/2 9/9/2
f 3/6/2 9/9/2 10/10/2
# Face 3
f 16/15/3 15/14/3 3/13/3
f 16/15/3 3/13/3 10/12/3
f 16/15/3 10/12/3 4/11/3
# Face 4
f 9/16/4 2/17/4 14/18/4
f 9/16/4 14/18/4 13/19/4
f 9/16/4 13/19/4 1/20/4
# Face 5
f 4/21/5 17/22/5 19/23/5
f 4/21/5 19/23/5 8/24/5
f 4/21/5 8/24/5 16/25/5
# Face 6
f 19/26/6 17/27/6 1/28/6
f 19/26/6 1/28/6 13/29/6
f 19/26/6 13/29/6 5/30/6
# Face 7
f 15/31/7 7/32/7 20/33/7
f 15/31/7 20/33/7 18/34/7
f 15/31/7 18/34/7 3/35/7
# Face 8
f 6/36/8 14/37/8 2/38/8
f 6/36/8 2/38/8 18/39/8
f 6/36/8 18/39/8 20/40/8
# Face 9
f 8/41/9 12/42/9 7/43/9
f 8/41/9 7/43/9 15/44/9
f 8/41/9 15/44/9 16/45/9
# Face 10
f 6/46/10 11/47/10 5/48/10
f 6/46/10 5/48/10 13/49/10
f 6/46/10 13/49/10 14/50/10
# Face 11
f 8/51/11 19/52/11 5/53/11
f 8/51/11 5/53/11 11/54/11
f 8/51/11 11/54/11 12/55/11
# Face 12
f 6/56/12 20/57/12 7/58/12
f 6/56/12 7/58/12 12/59/12
f 6/56/12 12/59/12 11/60/12

#-end of awesomeness- 

