# File created using saveAsOBJ()
# Author: Emil Hedemalm

# Vertices! D:
v 0 1 0
v 0 1 0
v 0 1 0
v 0 1 0
v 0 1 0
v 0 1 0
v 0 1 0
v 0 0.866025 0.5
v 0.433013 0.866025 0.25
v 0.433013 0.866025 -0.25
v 4.66906e-14 0.866025 -0.5
v -0.433013 0.866025 -0.25
v -0.433013 0.866025 0.25
v -9.33812e-14 0.866025 0.5
v 0 0.5 0.866025
v 0.75 0.5 0.433013
v 0.75 0.5 -0.433013
v 8.08705e-14 0.5 -0.866025
v -0.75 0.5 -0.433013
v -0.75 0.5 0.433013
v -1.61741e-13 0.5 0.866025
v 0 4.66906e-14 1
v 0.866025 4.66906e-14 0.5
v 0.866025 4.66906e-14 -0.5
v 9.33812e-14 4.66906e-14 -1
v -0.866025 4.66906e-14 -0.5
v -0.866025 4.66906e-14 0.5
v -1.86762e-13 4.66906e-14 1
v 0 -0.5 0.866025
v 0.75 -0.5 0.433013
v 0.75 -0.5 -0.433013
v 8.08705e-14 -0.5 -0.866025
v -0.75 -0.5 -0.433013
v -0.75 -0.5 0.433013
v -1.61741e-13 -0.5 0.866025
v 0 -0.866025 0.5
v 0.433013 -0.866025 0.25
v 0.433013 -0.866025 -0.25
v 4.66906e-14 -0.866025 -0.5
v -0.433013 -0.866025 -0.25
v -0.433013 -0.866025 0.25
v -9.33812e-14 -0.866025 0.5
v 0 -1 9.33812e-14
v 8.08705e-14 -1 4.66906e-14
v 8.08705e-14 -1 -4.66906e-14
v 8.72005e-27 -1 -9.33812e-14
v -8.08705e-14 -1 -4.66906e-14
v -8.08705e-14 -1 4.66906e-14
v -1.74401e-26 -1 9.33812e-14

# UV-Coordinates! o-o
vt 0 1
vt 0.166667 1
vt 0.333333 1
vt 0.5 1
vt 0.666667 1
vt 0.833333 1
vt 1 1
vt 0 0.833333
vt 0.166667 0.833333
vt 0.333333 0.833333
vt 0.5 0.833333
vt 0.666667 0.833333
vt 0.833333 0.833333
vt 1 0.833333
vt 0 0.666667
vt 0.166667 0.666667
vt 0.333333 0.666667
vt 0.5 0.666667
vt 0.666667 0.666667
vt 0.833333 0.666667
vt 1 0.666667
vt 0 0.5
vt 0.166667 0.5
vt 0.333333 0.5
vt 0.5 0.5
vt 0.666667 0.5
vt 0.833333 0.5
vt 1 0.5
vt 0 0.333333
vt 0.166667 0.333333
vt 0.333333 0.333333
vt 0.5 0.333333
vt 0.666667 0.333333
vt 0.833333 0.333333
vt 1 0.333333
vt 0 0.166667
vt 0.166667 0.166667
vt 0.333333 0.166667
vt 0.5 0.166667
vt 0.666667 0.166667
vt 0.833333 0.166667
vt 1 0.166667
vt 0 0
vt 0.166667 0
vt 0.333333 0
vt 0.5 0
vt 0.666667 0
vt 0.833333 0
vt 1 0

# Normals! o-o
vn 0 1 0
vn 0 1 0
vn 0 1 0
vn 0 1 0
vn 0 1 0
vn 0 1 0
vn 0 1 0
vn 0 0.866025 0.5
vn 0.433013 0.866025 0.25
vn 0.433013 0.866025 -0.25
vn 4.66906e-14 0.866025 -0.5
vn -0.433013 0.866025 -0.25
vn -0.433013 0.866025 0.25
vn -9.33812e-14 0.866025 0.5
vn 0 0.5 0.866025
vn 0.75 0.5 0.433013
vn 0.75 0.5 -0.433013
vn 8.08705e-14 0.5 -0.866025
vn -0.75 0.5 -0.433013
vn -0.75 0.5 0.433013
vn -1.61741e-13 0.5 0.866025
vn 0 4.66906e-14 1
vn 0.866025 4.66906e-14 0.5
vn 0.866025 4.66906e-14 -0.5
vn 9.33812e-14 4.66906e-14 -1
vn -0.866025 4.66906e-14 -0.5
vn -0.866025 4.66906e-14 0.5
vn -1.86762e-13 4.66906e-14 1
vn 0 -0.5 0.866025
vn 0.75 -0.5 0.433013
vn 0.75 -0.5 -0.433013
vn 8.08705e-14 -0.5 -0.866025
vn -0.75 -0.5 -0.433013
vn -0.75 -0.5 0.433013
vn -1.61741e-13 -0.5 0.866025
vn 0 -0.866025 0.5
vn 0.433013 -0.866025 0.25
vn 0.433013 -0.866025 -0.25
vn 4.66906e-14 -0.866025 -0.5
vn -0.433013 -0.866025 -0.25
vn -0.433013 -0.866025 0.25
vn -9.33812e-14 -0.866025 0.5
vn 0 -1 9.33812e-14
vn 8.08705e-14 -1 4.66906e-14
vn 8.08705e-14 -1 -4.66906e-14
vn 8.72005e-27 -1 -9.33812e-14
vn -8.08705e-14 -1 -4.66906e-14
vn -8.08705e-14 -1 4.66906e-14
vn -1.74401e-26 -1 9.33812e-14
f 8/8/8 9/9/9 2/2/2
f 2/2/2 1/1/1 8/8/8
f 9/9/9 10/10/10 3/3/3
f 3/3/3 2/2/2 9/9/9
f 10/10/10 11/11/11 4/4/4
f 4/4/4 3/3/3 10/10/10
f 11/11/11 12/12/12 5/5/5
f 5/5/5 4/4/4 11/11/11
f 12/12/12 13/13/13 6/6/6
f 6/6/6 5/5/5 12/12/12
f 13/13/13 14/14/14 7/7/7
f 7/7/7 6/6/6 13/13/13
f 15/15/15 16/16/16 9/9/9
f 9/9/9 8/8/8 15/15/15
f 16/16/16 17/17/17 10/10/10
f 10/10/10 9/9/9 16/16/16
f 17/17/17 18/18/18 11/11/11
f 11/11/11 10/10/10 17/17/17
f 18/18/18 19/19/19 12/12/12
f 12/12/12 11/11/11 18/18/18
f 19/19/19 20/20/20 13/13/13
f 13/13/13 12/12/12 19/19/19
f 20/20/20 21/21/21 14/14/14
f 14/14/14 13/13/13 20/20/20
f 22/22/22 23/23/23 16/16/16
f 16/16/16 15/15/15 22/22/22
f 23/23/23 24/24/24 17/17/17
f 17/17/17 16/16/16 23/23/23
f 24/24/24 25/25/25 18/18/18
f 18/18/18 17/17/17 24/24/24
f 25/25/25 26/26/26 19/19/19
f 19/19/19 18/18/18 25/25/25
f 26/26/26 27/27/27 20/20/20
f 20/20/20 19/19/19 26/26/26
f 27/27/27 28/28/28 21/21/21
f 21/21/21 20/20/20 27/27/27
f 29/29/29 30/30/30 23/23/23
f 23/23/23 22/22/22 29/29/29
f 30/30/30 31/31/31 24/24/24
f 24/24/24 23/23/23 30/30/30
f 31/31/31 32/32/32 25/25/25
f 25/25/25 24/24/24 31/31/31
f 32/32/32 33/33/33 26/26/26
f 26/26/26 25/25/25 32/32/32
f 33/33/33 34/34/34 27/27/27
f 27/27/27 26/26/26 33/33/33
f 34/34/34 35/35/35 28/28/28
f 28/28/28 27/27/27 34/34/34
f 36/36/36 37/37/37 30/30/30
f 30/30/30 29/29/29 36/36/36
f 37/37/37 38/38/38 31/31/31
f 31/31/31 30/30/30 37/37/37
f 38/38/38 39/39/39 32/32/32
f 32/32/32 31/31/31 38/38/38
f 39/39/39 40/40/40 33/33/33
f 33/33/33 32/32/32 39/39/39
f 40/40/40 41/41/41 34/34/34
f 34/34/34 33/33/33 40/40/40
f 41/41/41 42/42/42 35/35/35
f 35/35/35 34/34/34 41/41/41
f 43/43/43 44/44/44 37/37/37
f 37/37/37 36/36/36 43/43/43
f 44/44/44 45/45/45 38/38/38
f 38/38/38 37/37/37 44/44/44
f 45/45/45 46/46/46 39/39/39
f 39/39/39 38/38/38 45/45/45
f 46/46/46 47/47/47 40/40/40
f 40/40/40 39/39/39 46/46/46
f 47/47/47 48/48/48 41/41/41
f 41/41/41 40/40/40 47/47/47
f 48/48/48 49/49/49 42/42/42
f 42/42/42 41/41/41 48/48/48
# End of file o-o 

