# Blender v2.69 (sub 0) OBJ File: '4Doors.blend'
# www.blender.org
mtllib 4Doors.mtl
o Cube
v 2.500000 0.000000 2.500000
v 2.499999 3.125000 2.500001
v 2.499999 1.562500 2.500001
v 2.500000 0.000000 0.750000
v 2.499999 2.343750 2.500001
v 2.499999 3.125000 0.750001
v 0.750000 0.000000 2.500000
v 2.500000 0.781250 2.500000
v 0.749999 3.125000 2.500001
v 2.500000 1.562500 0.750001
v 0.749999 1.562500 2.500000
v 2.500000 2.343750 0.750001
v 0.750000 0.000000 0.750000
v 3.000000 0.781250 0.750000
v 3.000000 2.343750 0.750001
v 0.749999 3.125000 0.750001
v 3.000000 1.562500 0.750001
v 2.500000 0.781250 0.750000
v 0.749999 2.343750 2.500001
v 0.750000 0.781250 2.500000
v 3.000000 0.000000 0.750000
v 0.750000 0.000000 3.000000
v 0.749999 1.562500 3.000000
v 0.749999 2.343750 3.000001
v 0.750000 0.781250 3.000000
v -2.500000 0.000000 2.500000
v -2.499999 3.125000 2.500001
v 0.000000 0.000000 2.500000
v -2.499999 1.562500 2.500001
v 0.000001 3.125000 2.500000
v -2.500000 0.000000 0.750000
v -2.499999 2.343750 2.500001
v -2.499999 3.125000 0.750001
v -0.750000 0.000000 2.500000
v -2.500000 0.781250 2.500000
v -0.749999 3.125000 2.500001
v -0.000000 0.000000 0.750000
v 0.000001 3.125000 0.750000
v -2.500000 1.562500 0.750001
v 0.000001 2.343750 2.500000
v -0.749999 1.562500 2.500000
v -2.500000 2.343750 0.750001
v -0.750000 0.000000 0.750000
v -3.000000 0.781250 0.750000
v -3.000000 2.343750 0.750001
v -0.749999 3.125000 0.750001
v -3.000000 1.562500 0.750001
v -2.500000 0.781250 0.750000
v -0.749999 2.343750 2.500001
v -0.750000 0.781250 2.500000
v -3.000000 0.000000 0.750000
v 0.000000 0.000000 3.000000
v -0.750000 0.000000 3.000000
v 0.000001 2.343750 3.000000
v -0.749999 1.562500 3.000000
v -0.749999 2.343750 3.000001
v -0.750000 0.781250 3.000000
v 2.500000 0.000000 -2.500000
v 2.499999 3.125000 -2.500001
v 2.500000 0.000000 0.000000
v 2.499999 1.562500 -2.500001
v 2.500000 3.125000 -0.000001
v 2.500000 0.000000 -0.750000
v 2.499999 2.343750 -2.500001
v 2.499999 3.125000 -0.750001
v 0.750000 0.000000 -2.500000
v 2.500000 0.781250 -2.500000
v 0.749999 3.125000 -2.500001
v 0.750000 0.000000 0.000000
v 0.750000 3.125000 -0.000001
v 2.500000 2.343750 -0.000001
v 2.500000 1.562500 -0.750001
v 0.749999 1.562500 -2.500000
v 2.500000 2.343750 -0.750001
v 0.750000 0.000000 -0.750000
v 3.000000 0.781250 -0.750000
v 3.000000 2.343750 -0.750001
v 0.749999 3.125000 -0.750001
v 3.000000 1.562500 -0.750001
v 3.000000 2.343750 -0.000001
v 2.500000 0.781250 -0.750000
v 0.749999 2.343750 -2.500001
v 0.750000 0.781250 -2.500000
v 3.000000 0.000000 -0.750000
v 3.000000 0.000000 0.000000
v 0.750000 0.000000 -3.000000
v 0.749999 1.562500 -3.000000
v 0.749999 2.343750 -3.000001
v 0.750000 0.781250 -3.000000
v -2.500000 0.000000 -2.500000
v -2.499999 3.125000 -2.500001
v -2.500000 0.000000 0.000000
v 0.000000 0.000000 -2.500000
v -2.499999 1.562500 -2.500001
v -2.500000 3.125000 -0.000001
v 0.000001 3.125000 -2.500000
v -0.000000 0.000000 0.000000
v 0.000000 3.125000 -0.000000
v -2.500000 0.000000 -0.750000
v -2.499999 2.343750 -2.500001
v -2.499999 3.125000 -0.750001
v -0.750000 0.000000 -2.500000
v -2.500000 0.781250 -2.500000
v -0.749999 3.125000 -2.500001
v -0.000000 0.000000 -0.750000
v -0.750000 0.000000 0.000000
v -0.750000 3.125000 -0.000001
v 0.000001 3.125000 -0.750000
v -2.500000 2.343750 -0.000001
v -2.500000 1.562500 -0.750001
v 0.000001 2.343750 -2.500000
v -0.749999 1.562500 -2.500000
v -2.500000 2.343750 -0.750001
v -0.750000 0.000000 -0.750000
v -3.000000 0.781250 -0.750000
v -3.000000 2.343750 -0.750001
v -0.749999 3.125000 -0.750001
v -3.000000 1.562500 -0.750001
v -3.000000 2.343750 -0.000001
v -2.500000 0.781250 -0.750000
v -0.749999 2.343750 -2.500001
v -0.750000 0.781250 -2.500000
v -3.000000 0.000000 -0.750000
v -3.000000 0.000000 0.000000
v 0.000000 0.000000 -3.000000
v -0.750000 0.000000 -3.000000
v 0.000001 2.343750 -3.000000
v -0.749999 1.562500 -3.000000
v -0.749999 2.343750 -3.000001
v -0.750000 0.781250 -3.000000
vn -1.000000 0.000000 -0.000000
vn 0.000000 1.000000 0.000000
vn 0.000000 -1.000000 0.000000
vn 0.000001 0.000000 -1.000000
vn -1.000000 -0.000000 -0.000001
vn 0.000000 0.000000 -1.000000
vn 1.000000 -0.000000 -0.000000
vn -0.000001 0.000000 -1.000000
vn 1.000000 -0.000000 -0.000001
vn 1.000000 -0.000001 -0.000000
vn 0.000001 0.000000 1.000000
vn -1.000000 -0.000001 0.000001
vn -1.000000 -0.000001 0.000000
vn 0.000000 0.000000 1.000000
vn -0.000001 0.000000 1.000000
vn 1.000000 -0.000000 0.000001
usemtl Material
s off
f 12//1 5//1 2//1 6//1
f 13//2 37//2 28//2 7//2
f 16//3 9//3 30//3 38//3
f 18//1 8//1 3//1 10//1
f 19//4 40//4 30//4 9//4
f 71//5 12//5 6//5 62//5
f 10//1 3//1 5//1 12//1
f 4//2 13//2 7//2 1//2
f 60//2 69//2 13//2 4//2
f 69//2 97//2 37//2 13//2
f 70//3 16//3 38//3 98//3
f 62//3 6//3 16//3 70//3
f 6//3 2//3 9//3 16//3
f 4//1 1//1 8//1 18//1
f 5//6 19//6 9//6 2//6
f 3//6 11//6 19//6 5//6
f 8//6 20//6 11//6 3//6
f 1//6 7//6 20//6 8//6
f 60//2 4//2 21//2 85//2
f 10//6 12//6 15//6 17//6
f 12//3 71//3 80//3 15//3
f 18//6 10//6 17//6 14//6
f 4//6 18//6 14//6 21//6
f 20//1 7//1 22//1 25//1
f 11//1 20//1 25//1 23//1
f 40//3 19//3 24//3 54//3
f 19//1 11//1 23//1 24//1
f 7//2 28//2 52//2 22//2
f 42//7 33//7 27//7 32//7
f 43//2 34//2 28//2 37//2
f 46//3 38//3 30//3 36//3
f 48//7 39//7 29//7 35//7
f 49//8 36//8 30//8 40//8
f 109//9 95//9 33//9 42//9
f 39//7 42//7 32//7 29//7
f 31//2 26//2 34//2 43//2
f 92//2 31//2 43//2 106//2
f 106//2 43//2 37//2 97//2
f 107//3 98//3 38//3 46//3
f 95//3 107//3 46//3 33//3
f 33//3 46//3 36//3 27//3
f 31//10 48//10 35//10 26//10
f 32//6 27//6 36//6 49//6
f 29//6 32//6 49//6 41//6
f 35//6 29//6 41//6 50//6
f 26//6 35//6 50//6 34//6
f 92//2 124//2 51//2 31//2
f 39//6 47//6 45//6 42//6
f 42//3 45//3 119//3 109//3
f 48//6 44//6 47//6 39//6
f 31//6 51//6 44//6 48//6
f 50//7 57//7 53//7 34//7
f 41//7 55//7 57//7 50//7
f 40//3 54//3 56//3 49//3
f 49//7 56//7 55//7 41//7
f 34//2 53//2 52//2 28//2
f 74//1 65//1 59//1 64//1
f 75//2 66//2 93//2 105//2
f 78//3 108//3 96//3 68//3
f 81//1 72//1 61//1 67//1
f 82//11 68//11 96//11 111//11
f 71//12 62//12 65//12 74//12
f 72//1 74//1 64//1 61//1
f 63//2 58//2 66//2 75//2
f 60//2 63//2 75//2 69//2
f 69//2 75//2 105//2 97//2
f 70//3 98//3 108//3 78//3
f 62//3 70//3 78//3 65//3
f 65//3 78//3 68//3 59//3
f 63//13 81//13 67//13 58//13
f 64//14 59//14 68//14 82//14
f 61//14 64//14 82//14 73//14
f 67//14 61//14 73//14 83//14
f 58//14 67//14 83//14 66//14
f 60//2 85//2 84//2 63//2
f 72//14 79//14 77//14 74//14
f 74//3 77//3 80//3 71//3
f 81//14 76//14 79//14 72//14
f 63//14 84//14 76//14 81//14
f 83//1 89//1 86//1 66//1
f 73//1 87//1 89//1 83//1
f 111//3 127//3 88//3 82//3
f 82//1 88//1 87//1 73//1
f 66//2 86//2 125//2 93//2
f 113//7 100//7 91//7 101//7
f 114//2 105//2 93//2 102//2
f 117//3 104//3 96//3 108//3
f 120//7 103//7 94//7 110//7
f 121//15 111//15 96//15 104//15
f 109//16 113//16 101//16 95//16
f 110//7 94//7 100//7 113//7
f 99//2 114//2 102//2 90//2
f 92//2 106//2 114//2 99//2
f 106//2 97//2 105//2 114//2
f 107//3 117//3 108//3 98//3
f 95//3 101//3 117//3 107//3
f 101//3 91//3 104//3 117//3
f 99//7 90//7 103//7 120//7
f 100//14 121//14 104//14 91//14
f 94//14 112//14 121//14 100//14
f 103//14 122//14 112//14 94//14
f 90//14 102//14 122//14 103//14
f 92//2 99//2 123//2 124//2
f 110//14 113//14 116//14 118//14
f 113//3 109//3 119//3 116//3
f 120//14 110//14 118//14 115//14
f 99//14 120//14 115//14 123//14
f 122//7 102//7 126//7 130//7
f 112//7 122//7 130//7 128//7
f 111//3 121//3 129//3 127//3
f 121//7 112//7 128//7 129//7
f 102//2 93//2 125//2 126//2
