# Blender v2.69 (sub 0) OBJ File: 'Aircraft.blend'
# www.blender.org
mtllib Aircraft.mtl
o Cube
v 1.000000 -1.000000 -1.000000
v 1.994884 -1.000000 2.072915
v -1.955870 -1.000000 2.092422
v -1.000000 -1.000000 -1.000000
v 1.000000 1.000000 -0.999999
v 1.994884 1.000000 2.072915
v -1.955870 1.000000 2.092422
v -1.000000 1.000000 -1.000000
v 1.000000 -1.000000 0.000000
v 0.000000 -1.000000 -3.000000
v 1.000000 0.000000 -1.000000
v 0.000000 -1.000000 1.000000
v 1.994884 0.000000 2.072915
v -1.000000 -1.000000 -0.000000
v -1.955870 0.000000 2.092422
v -1.000000 0.000000 -1.000000
v 1.000000 1.000000 0.000001
v 0.000000 1.000000 -3.000000
v -0.000001 1.000000 1.000000
v -1.000000 1.000000 -0.000000
v 0.000000 -1.000000 -0.000000
v -0.000000 1.000000 0.000000
v 1.000000 0.000000 0.000000
v -0.000000 0.000000 1.000000
v -1.000000 0.000000 -0.000000
v 0.000000 0.000000 -3.000000
vn 0.000000 -1.000000 0.000000
vn 0.000000 1.000000 0.000000
vn 0.901543 0.000000 -0.432690
vn 0.487630 0.000000 0.873051
vn -1.000000 -0.000000 -0.000000
vn -0.894427 -0.000000 -0.447214
vn 0.901542 0.000000 -0.432691
vn 1.000000 -0.000000 0.000000
vn -0.473671 -0.000000 0.880702
vn -0.909584 -0.000000 -0.415520
vn 0.894427 -0.000000 -0.447214
vn 0.894427 -0.000000 -0.447213
usemtl Material
s off
f 21//1 12//1 3//1 14//1
f 22//2 20//2 7//2 19//2
f 23//3 17//3 6//3 13//3
f 24//4 19//4 7//4 15//4
f 25//5 20//5 8//5 16//5
f 26//6 10//6 4//6 16//6
f 10//1 21//1 14//1 4//1
f 1//1 9//1 21//1 10//1
f 9//1 2//1 12//1 21//1
f 17//2 22//2 19//2 6//2
f 5//2 18//2 22//2 17//2
f 18//2 8//2 20//2 22//2
f 9//7 23//7 13//7 2//7
f 1//8 11//8 23//8 9//8
f 11//8 5//8 17//8 23//8
f 12//4 24//4 15//4 3//4
f 2//9 13//9 24//9 12//9
f 13//9 6//9 19//9 24//9
f 14//5 25//5 16//5 4//5
f 3//10 15//10 25//10 14//10
f 15//10 7//10 20//10 25//10
f 18//6 26//6 16//6 8//6
f 5//11 11//11 26//11 18//11
f 11//12 1//12 10//12 26//12
